<?xml version="1.0" encoding="utf-8"?>
<!-- Generator: Adobe Illustrator 25.2.1, SVG Export Plug-In . SVG Version: 6.00 Build 0)  -->
<svg version="1.1" xmlns="http://www.w3.org/2000/svg" xmlns:xlink="http://www.w3.org/1999/xlink" x="0px" y="0px"
	 viewBox="0 0 500 500" style="enable-background:new 0 0 500 500;" xml:space="preserve">
<style type="text/css">
	.st0{fill:#EBEBEB;}
	.st1{fill:#E0E0E0;}
	.st2{fill:#FAFAFA;}
	.st3{fill:#F0F0F0;}
	.st4{fill:#F5F5F5;}
	.st5{display:none;}
	.st6{display:inline;}
	.st7{fill:#407BFF;}
	.st8{opacity:0.9;fill:#FFFFFF;enable-background:new    ;}
	.st9{fill:#EBB376;}
	.st10{opacity:0.2;}
	.st11{opacity:0.4;}
	.st12{opacity:0.2;enable-background:new    ;}
	.st13{fill:#263238;}
	.st14{fill:none;stroke:#263238;stroke-width:0.605;stroke-linecap:round;stroke-linejoin:round;stroke-miterlimit:10;}
	.st15{opacity:0.6;fill:#FFFFFF;}
	.st16{opacity:0.3;fill:#FFFFFF;}
	.st17{opacity:0.1;fill:#FFFFFF;}
	.st18{opacity:0.3;}
	.st19{fill:none;stroke:#263238;stroke-width:1.0666;stroke-miterlimit:10;}
	.st20{fill:none;stroke:#263238;stroke-width:1.0666;stroke-linecap:round;stroke-linejoin:round;stroke-miterlimit:10;}
	.st21{opacity:0.5;}
	.st22{fill:none;stroke:#000000;stroke-width:1.0666;stroke-miterlimit:10;}
	.st23{fill:none;stroke:#000000;stroke-width:1.0666;stroke-linecap:round;stroke-linejoin:round;stroke-miterlimit:10;}
	.st24{fill:#FFFFFF;}
</style>
<g id="Background_Complete">
	<g>
		<rect y="382.4" class="st0" width="500" height="0.2"/>
		<rect x="416.8" y="398.5" class="st0" width="33.1" height="0.2"/>
		<rect x="322.5" y="401.2" class="st0" width="8.7" height="0.2"/>
		<rect x="396.6" y="389.2" class="st0" width="19.2" height="0.2"/>
		<rect x="52.5" y="390.9" class="st0" width="43.2" height="0.2"/>
		<rect x="104.6" y="390.9" class="st0" width="6.3" height="0.2"/>
		<rect x="131.5" y="395.1" class="st0" width="93.7" height="0.2"/>
		<path class="st0" d="M237,337.8H43.9c-3.1,0-5.7-2.6-5.7-5.7V60.7c0-3.1,2.6-5.7,5.7-5.7H237c3.1,0,5.7,2.6,5.7,5.7v271.4
			C242.7,335.2,240.2,337.8,237,337.8z M43.9,55.2c-3,0-5.5,2.4-5.5,5.5v271.4c0,3,2.4,5.5,5.5,5.5H237c3,0,5.5-2.4,5.5-5.5V60.7
			c0-3-2.4-5.5-5.5-5.5H43.9z"/>
		<path class="st0" d="M453.3,337.8H260.2c-3.1,0-5.7-2.6-5.7-5.7V60.7c0-3.1,2.6-5.7,5.7-5.7h193.1c3.1,0,5.7,2.6,5.7,5.7v271.4
			C459,335.2,456.5,337.8,453.3,337.8z M260.2,55.2c-3,0-5.5,2.4-5.5,5.5v271.4c0,3,2.4,5.5,5.5,5.5h193.1c3,0,5.5-2.4,5.5-5.5V60.7
			c0-3-2.4-5.5-5.5-5.5H260.2z"/>
	</g>
	<g>
		<g>
			<path class="st1" d="M327.6,237.9c2-3.3,3.1-7.1,3.1-11.2c0-12-9.8-21.8-21.8-21.8c-12,0-21.8,9.8-21.8,21.8
				c0,4.1,1.1,7.9,3.1,11.2H327.6z"/>
			<path class="st0" d="M315.5,206c-2.1-0.7-4.3-1-6.6-1c-12,0-21.8,9.8-21.8,21.8c0,4.1,1.1,7.9,3.1,11.2h30.9
				c2.2-3.7,3.5-8.1,3.5-12.7C324.7,217.5,321.1,210.5,315.5,206z"/>
		</g>
		<rect x="84.9" y="237.9" class="st2" width="330.1" height="85.7"/>
		<path class="st3" d="M415.1,288.6c-54.8,1-88.7,18.7-130.9,18.7c-55.7,0-73.5-17.8-130.7-17.8c-32.6,0-50.4,8.6-68.6,16.1v18.1
			h330.1V288.6z"/>
		<g>
			<path class="st4" d="M406.2,193.3c-3.1-0.1-6,1.7-9,1.4c-5.5-0.6-8.7-8.2-14.3-7.7c-4.4,0.4-7.2,6.4-11.6,6
				c-4.7-0.4-7.9-11.9-15.7-11.1c-4.5,0.5-4.2,7.8-8.1,10.1c-3.1,1.8-6.2-0.1-11.3,0.9c-9.3,1.8-10,7.5-10,7.5h86.5
				C413,197,409.9,193.5,406.2,193.3z"/>
			<path class="st4" d="M368.6,151.9c-6.2-1.4-13.2,3-18.7-0.2c-6.8-4-6.3-16.9-14.1-17.7c-13.6-1.5-19.1,18.7-27.4,19.3
				c-7.7,0.6-12.6-9.8-20.3-10.6c-9.6-0.9-15.3,12.3-24.9,13.5c-5.3,0.6-10.4-2.6-15.7-2.3c-6.3,0.3-11.8,6.2-11.4,12.7h151
				C387.1,166.6,376.9,153.8,368.6,151.9z"/>
			<path class="st4" d="M189.7,153.1c-7.2-4.2-13.8-2.7-20.8-1.4c-7,1.3-7.8-8.1-16.1-12.2c-11.6-5.7-18.7,6.5-21.6,11.5
				s-10.5,2.3-17.8,3.6c-10.2,1.8-10.6,12.5-10.6,12.5h94.8C197.7,167.1,197.5,157.6,189.7,153.1z"/>
		</g>
		<g>
			<g>
				<g>
					<path class="st3" d="M266.8,252.8h-17.9c-0.4,0-0.7-0.3-0.7-0.7s0.3-0.7,0.7-0.7h17.9c0.4,0,0.7,0.3,0.7,0.7
						S267.1,252.8,266.8,252.8z"/>
				</g>
				<g>
					<path class="st3" d="M212.8,252.8h-17.9c-0.4,0-0.7-0.3-0.7-0.7s0.3-0.7,0.7-0.7h17.9c0.4,0,0.7,0.3,0.7,0.7
						S213.2,252.8,212.8,252.8z"/>
				</g>
				<g>
					<path class="st3" d="M282.3,266h-20.6c-0.8,0-1.4-0.6-1.4-1.4s0.6-1.4,1.4-1.4h20.6c0.8,0,1.4,0.6,1.4,1.4S283.1,266,282.3,266
						z"/>
				</g>
				<g>
					<path class="st3" d="M397.2,269.4h-13.9c-0.6,0-1.1-0.5-1.1-1.1c0-0.6,0.5-1.1,1.1-1.1h13.9c0.6,0,1.1,0.5,1.1,1.1
						C398.3,268.9,397.8,269.4,397.2,269.4z"/>
				</g>
				<g>
					<path class="st3" d="M365.2,248.5h-20.6c-0.5,0-0.9-0.4-0.9-0.9c0-0.5,0.4-0.9,0.9-0.9h20.6c0.5,0,0.9,0.4,0.9,0.9
						C366.1,248,365.7,248.5,365.2,248.5z"/>
				</g>
				<g>
					<path class="st3" d="M321.2,280.8h-12c-0.8,0-1.4-0.6-1.4-1.4c0-0.8,0.6-1.4,1.4-1.4h12c0.8,0,1.4,0.6,1.4,1.4
						C322.6,280.2,322,280.8,321.2,280.8z"/>
				</g>
				<g>
					<path class="st3" d="M373.1,253.2h-20.6c-0.4,0-0.7-0.3-0.7-0.7s0.3-0.7,0.7-0.7h20.6c0.4,0,0.7,0.3,0.7,0.7
						S373.5,253.2,373.1,253.2z"/>
				</g>
				<g>
					<path class="st3" d="M332.3,267.1h-30.9c-0.5,0-0.9-0.4-0.9-0.9c0-0.5,0.4-0.9,0.9-0.9h30.9c0.5,0,0.9,0.4,0.9,0.9
						C333.2,266.7,332.8,267.1,332.3,267.1z"/>
				</g>
				<g>
					<path class="st3" d="M344.6,263.9h-8.6c-0.5,0-0.9-0.4-0.9-0.9s0.4-0.9,0.9-0.9h8.6c0.5,0,0.9,0.4,0.9,0.9
						S345.1,263.9,344.6,263.9z"/>
				</g>
				<g>
					<path class="st3" d="M397.4,249.8h-8.6c-0.5,0-0.9-0.4-0.9-0.9c0-0.5,0.4-0.9,0.9-0.9h8.6c0.5,0,0.9,0.4,0.9,0.9
						C398.3,249.4,397.9,249.8,397.4,249.8z"/>
				</g>
				<g>
					<path class="st3" d="M297.7,276.2h-17.1c-0.5,0-0.9-0.4-0.9-0.9s0.4-0.9,0.9-0.9h17.1c0.5,0,0.9,0.4,0.9,0.9
						S298.2,276.2,297.7,276.2z"/>
				</g>
				<g>
					<path class="st3" d="M238.4,246.6h-17.1c-0.5,0-0.9-0.4-0.9-0.9c0-0.5,0.4-0.9,0.9-0.9h17.1c0.5,0,0.9,0.4,0.9,0.9
						C239.3,246.2,238.9,246.6,238.4,246.6z"/>
				</g>
				<g>
					<path class="st3" d="M349,259.2h-6.2c-0.4,0-0.7-0.3-0.7-0.7c0-0.4,0.3-0.7,0.7-0.7h6.2c0.4,0,0.7,0.3,0.7,0.7
						C349.7,258.9,349.4,259.2,349,259.2z"/>
				</g>
				<g>
					<path class="st3" d="M390.5,259.2h-6.2c-0.4,0-0.7-0.3-0.7-0.7c0-0.4,0.3-0.7,0.7-0.7h6.2c0.4,0,0.7,0.3,0.7,0.7
						C391.2,258.9,390.9,259.2,390.5,259.2z"/>
				</g>
				<g>
					<path class="st3" d="M227,264.8h-11.5c-0.5,0-0.9-0.4-0.9-0.9s0.4-0.9,0.9-0.9H227c0.5,0,0.9,0.4,0.9,0.9
						S227.5,264.8,227,264.8z"/>
				</g>
				<g>
					<path class="st3" d="M195.4,247.5h-11.5c-0.5,0-0.9-0.4-0.9-0.9c0-0.5,0.4-0.9,0.9-0.9h11.5c0.5,0,0.9,0.4,0.9,0.9
						C196.3,247.1,195.9,247.5,195.4,247.5z"/>
				</g>
				<g>
					<path class="st3" d="M370.4,264.6H359c-0.4,0-0.7-0.3-0.7-0.7c0-0.4,0.3-0.7,0.7-0.7h11.4c0.4,0,0.7,0.3,0.7,0.7
						C371.1,264.3,370.8,264.6,370.4,264.6z"/>
				</g>
			</g>
			<g>
				<path class="st3" d="M314.6,258.5c0-0.7,0.5-1.2,1.2-1.2h6.7c0.2,0,0.3-0.1,0.4-0.2c0.1-0.1,0.2-0.3,0.1-0.5
					c0-0.3-0.3-0.5-0.6-0.5h-10.3c-0.4,0-0.8-0.3-0.9-0.8c-0.1-0.6,0.3-1.1,0.9-1.1h16.1c0.3,0,0.6-0.1,0.8-0.4
					c0.2-0.2,0.3-0.6,0.2-0.9c-0.1-0.5-0.6-0.9-1.1-0.9h-9.7c-0.5,0-1-0.4-1.1-1c-0.1-0.7,0.4-1.4,1.1-1.4h17.9
					c0.2,0,0.3-0.1,0.5-0.2c0.1-0.1,0.2-0.3,0.1-0.5c0-0.3-0.3-0.5-0.6-0.5h-24.7c-0.4,0-0.7-0.2-1-0.5c-0.2-0.3-0.4-0.7-0.3-1.1
					c0.1-0.7,0.7-1.2,1.3-1.2h22.3c0.3,0,0.6-0.1,0.8-0.4c0.2-0.3,0.3-0.6,0.3-0.9c0-0.7-0.6-1.2-1.2-1.2h-13.2c-0.5,0-1-0.4-1.1-1
					c-0.1-0.7,0.4-1.4,1.1-1.4h4.1h4c0.7,0,1.2-0.6,1.2-1.3c0-0.7-0.6-1.3-1.2-1.3h-39.9c-0.4,0-0.7,0.3-0.7,0.7
					c0,0.4,0.3,0.7,0.7,0.7h6.4c0.3,0.1,0.6,0.4,0.6,0.8c0,0.5-0.3,0.8-0.8,0.8h-4.6h-11.5H275c-0.3,0-0.6,0.3-0.6,0.7
					c0,0.4,0.3,0.7,0.6,0.7h27.9c0.4,0,0.7,0.2,1,0.5c0.2,0.3,0.4,0.7,0.3,1.1c-0.1,0.7-0.7,1.2-1.3,1.2h-30.1
					c-0.3,0-0.6,0.1-0.8,0.4c-0.2,0.3-0.3,0.6-0.3,0.9c0,0.7,0.6,1.2,1.2,1.2H298c0.5,0,1,0.4,1.1,1c0.1,0.7-0.4,1.4-1.1,1.4h-20.8
					c-0.2,0-0.5,0.1-0.7,0.3c-0.2,0.2-0.3,0.5-0.2,0.8c0.1,0.5,0.5,0.8,1,0.8h15.6c0.4,0,0.7,0.2,1,0.5c0.2,0.3,0.4,0.7,0.3,1.1
					c-0.1,0.7-0.7,1.2-1.3,1.2h-12.5c-0.2,0-0.5,0.1-0.7,0.3c-0.2,0.2-0.3,0.5-0.2,0.8c0.1,0.5,0.5,0.8,1,0.8h23.9
					c0.4,0,0.8,0.3,0.9,0.8c0.1,0.6-0.3,1.1-0.9,1.1H294c-0.4,0-0.8,0.2-1.1,0.5c-0.3,0.3-0.4,0.7-0.4,1.2c0,0.8,0.8,1.5,1.6,1.5
					h19.1h12.6h1c0.6,0,1-0.5,1-1l0,0c0-0.6-0.5-1-1-1h-11C315.1,259.7,314.6,259.1,314.6,258.5L314.6,258.5z"/>
			</g>
		</g>
	</g>
</g>
<g id="Background_Simple" class="st5">
	<g class="st6">
		<path class="st7" d="M172.3,141.2c-43.3-34.6-77.9-8.8-86.8,24.3c-17.4,64.5,33.2,133.6,99.7,158.1s75.4,2.6,121,46.7
			c69.5,67.3,162.6-6.7,132.9-97.1C407,176,332.7,145.6,277.6,171.1C232.8,191.9,202.2,165.1,172.3,141.2z"/>
		<path class="st8" d="M172.3,141.2c-43.3-34.6-77.9-8.8-86.8,24.3c-17.4,64.5,33.2,133.6,99.7,158.1s75.4,2.6,121,46.7
			c69.5,67.3,162.6-6.7,132.9-97.1C407,176,332.7,145.6,277.6,171.1C232.8,191.9,202.2,165.1,172.3,141.2z"/>
	</g>
</g>
<g id="Shadow_1_">
	<ellipse id="_x3C_Path_x3E__359_" class="st4" cx="250" cy="416.2" rx="193.9" ry="11.3"/>
</g>
<g id="Character">
	<g>
		<g>
			<path class="st9" d="M122.1,253.4c0,0-16.9,31.2-1.6,39.3l10.8-37.1L122.1,253.4z"/>
			<path class="st10" d="M122.1,253.4c0,0-16.9,31.2-1.6,39.3l10.8-37.1L122.1,253.4z"/>
			<path class="st7" d="M138.5,230.4c0,0-12.3,7.1-19,24.2c0,0,9,3.4,17.3,5.1C136.8,259.6,143.2,242.4,138.5,230.4z"/>
			<path class="st11" d="M138.5,230.4c0,0-12.3,7.1-19,24.2c0,0,9,3.4,17.3,5.1C136.8,259.6,143.2,242.4,138.5,230.4z"/>
			<g>
				<path class="st9" d="M170.5,210.2c0.1,0.1,0.2,0.2,0.2,0.3c1.1,1.4,2.5,2.8,4.2,3.7c4.8,2.6,8.5,2.9,11.5,1.2c0,0,0,0,0,0
					c4.2-2.6,6.7-8.6,8.3-16.2c0.7-3.5,1.1-6.6,0.8-9.2c0,0,0-0.1,0-0.1c0-0.1,0-0.2,0-0.4c-0.5-3.6-2.3-6.4-5.8-8.3
					c-1.2-0.7-2.6-1.2-4.3-1.7C170.9,175.4,161.6,198.8,170.5,210.2z"/>
				<path class="st12" d="M170.7,210.5c1.1,1.4,2.5,2.6,4.3,3.5c4.8,2.6,8.6,2.7,11.5,1c-2.7-0.1-6.1-0.9-9-3.3
					C175.7,210.2,173.2,210,170.7,210.5z"/>
				<path class="st9" d="M162.3,221.4c-2.8,3.4,4.5,7.9,4.5,7.9c9.9,0.3,13.5-3.4,13.5-3.4c-5.3-6.8,1.4-16.1,1.4-16.1l-1.7,0
					l-12.9-3.1C167,206.8,166.7,216.2,162.3,221.4z"/>
				<path class="st13" d="M195.6,189.9c0,0-2,10.4-12.9,12.2c0,0-7.1,9.5-13.3,7.9c-8.4-2.1-12.5-16-6.3-27.3
					C171.2,168.1,195.3,173.4,195.6,189.9z"/>
				<path class="st13" d="M182.5,173.5c0,0,17.1,0,16.2,11.7c-1.2,16.2-16.2,13.5-16.2,13.5S183,212,169.4,210
					C146.6,206.8,156.3,159.6,182.5,173.5z"/>
				<path class="st9" d="M188.4,200.5c0.4-1.6-0.1-4.6-2.7-4.9c-2.7-0.3-5.8,5.6,0.1,8.8C186.6,204.8,187.4,203.9,188.4,200.5z"/>
				<path class="st14" d="M180.6,174.3c0,0,12.9-3.5,17.9,4.8c3.6,5.9-0.2,12.6-0.2,12.6"/>
			</g>
			<path class="st9" d="M216,265.8c-6.1,2.9-8,4.4-14.4,6.6c1.4,4,4.6,13.8,3.7,14.7c-2.4,2.5-20.5,1.4-20.5,1.4l-3.2,11.3
				c0,0,14.2,0.7,25.4-0.4c11.2-1.1,15.2-0.4,12.2-18.3C218.8,277.5,216.9,269.2,216,265.8z"/>
			<path class="st7" d="M200,274.3c6.4-2.2,12.6-5.1,18.7-8c-4.6-16.8-13.9-29.4-13.9-29.4s-14.4,4.9-12.6,14.7
				C193.2,257.7,197.5,267.2,200,274.3z"/>
			<path class="st10" d="M200,274.3c6.4-2.2,12.6-5.1,18.7-8c-4.6-16.8-13.9-29.4-13.9-29.4s-14.4,4.9-12.6,14.7
				C193.2,257.7,197.5,267.2,200,274.3z"/>
			<path class="st7" d="M141.9,383.8c0,0,8.1,1.1,17.7,0c0,0,8.1-42.9,6.3-52.2h-22.7C143.2,331.6,141.9,372.2,141.9,383.8z"/>
			<path class="st15" d="M141.9,383.8c0,0,8.1,1.1,17.7,0c0,0,8.1-42.9,6.3-52.2h-22.7C143.2,331.6,141.9,372.2,141.9,383.8z"/>
			<path class="st7" d="M208.8,382.4l17.4,0.2c2.3-10.5,11.6-62.8,3.1-79c0,0-3.1-6.7-20-4.1c-16.9,2.6-40.6,8.8-58,11.9
				c-17.4,3.1-31.2,0.2-31.2,0.2s-7.7,26.1,12.1,30c19.8,3.9,71.9,0.3,76.4-1.9C212.4,337.9,209.7,372.1,208.8,382.4z"/>
			<path class="st15" d="M208.8,382.4l17.4,0.2c2.3-10.5,11.6-62.8,3.1-79c0,0-3.1-6.7-20-4.1c-16.9,2.6-40.6,8.8-58,11.9
				c-17.4,3.1-31.2,0.2-31.2,0.2s-7.7,26.1,12.1,30c19.8,3.9,71.9,0.3,76.4-1.9C212.4,337.9,209.7,372.1,208.8,382.4z"/>
			<g>
				<polygon class="st9" points="211.9,380.5 210.8,400 220.1,398.7 221.2,380.5 				"/>
				<polygon class="st12" points="211.9,380.5 211.4,390 220.7,389.2 221.2,380.5 				"/>
				<polygon class="st7" points="207.6,385.8 228.3,387.2 230,378.3 207.3,377.3 				"/>
				<polygon class="st16" points="207.6,385.8 228.3,387.2 230,378.3 207.3,377.3 				"/>
				<g>
					<path class="st7" d="M221.1,398.7c0,0,0.2,0,0.2,0c0,0,0.2,0.1,0.2,0.1c0,0,0,0.1,0,0.1c0,0,0.1,0,0.1,0
						c0.8,0.2,1.6,0.4,2.5,0.5c0.6,0.1,1.3,0,1.8-0.4c0.3-0.3,0.5-0.8,0.3-1.2c0-0.3-0.2-0.5-0.5-0.7c-0.6-0.3-1.7,0.1-2.6,0.5
						c0.6-0.7,1-1.6,0.9-2.2c-0.1-0.4-0.4-0.7-0.8-0.7c-0.3-0.1-0.8,0-1,0.2C221.2,395.9,221.1,398.5,221.1,398.7
						C221.1,398.7,221.1,398.7,221.1,398.7C221.1,398.7,221.1,398.7,221.1,398.7C221.1,398.7,221.1,398.7,221.1,398.7z M222.1,398.2
						c-0.1,0-0.1,0.1-0.2,0.1c0-0.9,0.2-2.4,0.8-2.9c0.1-0.1,0.3-0.2,0.5-0.2l0.1,0c0.3,0.1,0.4,0.2,0.4,0.3
						C223.7,396.2,222.9,397.5,222.1,398.2z M222.2,398.6c1.1-0.6,2.7-1.3,3.4-1c0.1,0.1,0.2,0.2,0.2,0.3c0.1,0.3,0,0.6-0.2,0.8
						C225.1,399.1,223.9,399.1,222.2,398.6z"/>
				</g>
				<path class="st13" d="M220.9,397.6l-10.6-0.7c-0.4,0-0.7,0.2-0.7,0.6c0,0,0,0,0,0l-1,8.3c-0.1,0.9,0.6,1.7,1.5,1.8
					c3.7,0.2,5.5,0.1,10.1,0.3c2.9,0.2,8.5,0.8,12.4,0.4c3.9-0.4,3.5-4.3,1.8-4.4c-4-0.5-9.4-3.4-11.9-5.7
					C222,397.8,221.4,397.6,220.9,397.6z"/>
			</g>
			<g>
				<polygon class="st9" points="145.3,380.5 144.1,400 153.5,398.7 154.6,380.5 				"/>
				<polygon class="st12" points="145.3,380.5 144.7,390 154,389.2 154.6,380.5 				"/>
				<polygon class="st7" points="140.9,385.8 161.6,387.2 163.4,378.3 140.6,377.3 				"/>
				<polygon class="st16" points="140.9,385.8 161.6,387.2 163.4,378.3 140.6,377.3 				"/>
				<g>
					<path class="st7" d="M154.4,398.7c0,0,0.2,0,0.2,0c0,0,0.2,0.1,0.2,0.1c0,0,0,0.1,0,0.1c0,0,0.1,0,0.1,0
						c0.8,0.2,1.6,0.4,2.5,0.5c0.6,0.1,1.3,0,1.8-0.4c0.3-0.3,0.5-0.8,0.3-1.2c0-0.3-0.2-0.5-0.5-0.7c-0.6-0.3-1.7,0.1-2.6,0.5
						c0.6-0.7,1-1.6,0.9-2.2c-0.1-0.4-0.4-0.7-0.8-0.7c-0.3-0.1-0.8,0-1,0.2C154.6,395.9,154.4,398.5,154.4,398.7
						C154.4,398.7,154.4,398.7,154.4,398.7C154.4,398.7,154.4,398.7,154.4,398.7C154.4,398.7,154.4,398.7,154.4,398.7z M155.4,398.2
						c-0.1,0-0.1,0.1-0.2,0.1c0-0.9,0.2-2.4,0.8-2.9c0.1-0.1,0.3-0.2,0.5-0.2l0.1,0c0.3,0.1,0.4,0.2,0.4,0.3
						C157.1,396.2,156.2,397.5,155.4,398.2z M155.6,398.6c1.1-0.6,2.7-1.3,3.4-1c0.1,0.1,0.2,0.2,0.2,0.3c0.1,0.3,0,0.6-0.2,0.8
						C158.5,399.1,157.2,399.1,155.6,398.6z"/>
				</g>
				<path class="st13" d="M154.2,397.6l-10.6-0.7c-0.4,0-0.7,0.2-0.7,0.6c0,0,0,0,0,0l-1,8.3c-0.1,0.9,0.6,1.7,1.5,1.8
					c3.7,0.2,5.5,0.1,10.1,0.3c2.9,0.2,8.5,0.8,12.4,0.4c3.9-0.4,3.5-4.3,1.8-4.4c-4-0.5-9.4-3.4-11.9-5.7
					C155.3,397.8,154.8,397.6,154.2,397.6z"/>
			</g>
			<path class="st7" d="M159.4,222.7c0,0-17.7,2.9-22.5,9.3c-4.8,6.4-28.1,76.8-16.9,79.7c14.4,3.7,61.4,6,65.1-3.2
				c3.7-9.2,10.4-45.2,19-60.2c2.9-5.1,3.1-8.2,0.7-11.3c-5.4-6.7-20.3-10.2-23.5-12.3l0.2-3.8c-4-0.7-11.6-2.1-19.1-3.6
				L159.4,222.7z"/>
			<path class="st10" d="M160,221.7c-0.4,0.6-1,1.1-1.7,1.2c-4,0.8-17.3,3.6-21.3,9.1c-4.8,6.4-28.1,76.8-16.9,79.7
				c14.4,3.7,61.4,6,65.1-3.2c3.7-9.2,10.4-45.2,19-60.2c2.9-5.1,3.1-8.2,0.7-11.3c-4.8-6-17-9.4-21.9-11.5
				c-0.9-0.4-1.5-1.4-1.5-2.4l0,0c0.1-1.2-0.8-2.3-2-2.6c-3.9-0.7-9.4-1.7-15.2-2.9c-1.1-0.2-2.2,0.3-2.7,1.2L160,221.7z"/>
		</g>
		<g>
			<path class="st13" d="M82.1,88.9L82.1,88.9c-6.6,0-11.9,5.3-11.9,11.9v315.5H94V100.8C94,94.2,88.6,88.9,82.1,88.9z"/>
			<path class="st17" d="M82.1,88.9L82.1,88.9c-6.6,0-11.9,5.3-11.9,11.9v315.5H94V100.8C94,94.2,88.6,88.9,82.1,88.9z"/>
			<path class="st18" d="M90.1,104.1c0,3.1-2.5,5.6-5.6,5.6c-3.1,0-5.6-2.5-5.6-5.6s2.5-5.6,5.6-5.6C87.6,98.5,90.1,101,90.1,104.1z
				"/>
			<g>
				<g>
					<g>
						<g>
							<path class="st19" d="M275.1,348.2c0-1.1,0.7-2,1.5-2s1.5,0.9,1.5,2c0,1.1-0.7,2-1.5,2S275.1,349.3,275.1,348.2z"/>
							<line class="st20" x1="276.5" y1="347" x2="276.5" y2="342.7"/>
							<path class="st19" d="M275.1,341.8c0-1.1,0.7-2,1.5-2s1.5,0.9,1.5,2c0,1.1-0.7,2-1.5,2S275.1,342.9,275.1,341.8z"/>
							<line class="st20" x1="276.5" y1="340.6" x2="276.5" y2="336.3"/>
							<path class="st19" d="M275.1,335.4c0-1.1,0.7-2,1.5-2s1.5,0.9,1.5,2c0,1.1-0.7,2-1.5,2S275.1,336.5,275.1,335.4z"/>
							<line class="st20" x1="276.5" y1="334.2" x2="276.5" y2="329.9"/>
							<path class="st19" d="M275.1,329c0-1.1,0.7-2,1.5-2s1.5,0.9,1.5,2s-0.7,2-1.5,2S275.1,330.1,275.1,329z"/>
							<line class="st20" x1="276.5" y1="327.8" x2="276.5" y2="323.5"/>
							<path class="st19" d="M275.1,322.6c0-1.1,0.7-2,1.5-2s1.5,0.9,1.5,2s-0.7,2-1.5,2S275.1,323.7,275.1,322.6z"/>
							<line class="st20" x1="276.5" y1="321.4" x2="276.5" y2="317.1"/>
							<path class="st19" d="M275.1,316.2c0-1.1,0.7-2,1.5-2s1.5,0.9,1.5,2s-0.7,2-1.5,2S275.1,317.3,275.1,316.2z"/>
							<line class="st20" x1="276.5" y1="315" x2="276.5" y2="310.7"/>
							<ellipse class="st19" cx="276.5" cy="309.8" rx="1.5" ry="2"/>
							<line class="st20" x1="276.5" y1="308.6" x2="276.5" y2="304.3"/>
							<ellipse class="st19" cx="276.5" cy="303.4" rx="1.5" ry="2"/>
							<line class="st20" x1="276.5" y1="302.2" x2="276.5" y2="297.9"/>
							<ellipse class="st19" cx="276.5" cy="297" rx="1.5" ry="2"/>
							<line class="st20" x1="276.5" y1="295.8" x2="276.5" y2="291.5"/>
							<ellipse class="st19" cx="276.5" cy="290.6" rx="1.5" ry="2"/>
							<line class="st20" x1="276.5" y1="289.4" x2="276.5" y2="285.1"/>
							<ellipse class="st19" cx="276.5" cy="284.2" rx="1.5" ry="2"/>
							<line class="st20" x1="276.5" y1="283" x2="276.5" y2="278.7"/>
							<ellipse class="st19" cx="276.5" cy="277.8" rx="1.5" ry="2"/>
							<line class="st20" x1="276.5" y1="276.6" x2="276.5" y2="272.3"/>
							<ellipse class="st19" cx="276.5" cy="271.4" rx="1.5" ry="2"/>
							<line class="st20" x1="276.5" y1="270.2" x2="276.5" y2="265.9"/>
							<path class="st19" d="M275.1,265c0-1.1,0.7-2,1.5-2s1.5,0.9,1.5,2c0,1.1-0.7,2-1.5,2S275.1,266.1,275.1,265z"/>
							<line class="st20" x1="276.5" y1="263.8" x2="276.5" y2="259.5"/>
							<path class="st19" d="M275.1,258.6c0-1.1,0.7-2,1.5-2s1.5,0.9,1.5,2c0,1.1-0.7,2-1.5,2S275.1,259.7,275.1,258.6z"/>
							<line class="st20" x1="276.5" y1="257.4" x2="276.5" y2="253.1"/>
							<path class="st19" d="M275.1,252.2c0-1.1,0.7-2,1.5-2s1.5,0.9,1.5,2c0,1.1-0.7,2-1.5,2S275.1,253.3,275.1,252.2z"/>
							<line class="st20" x1="276.5" y1="251" x2="276.5" y2="246.7"/>
							<path class="st19" d="M275.1,245.8c0-1.1,0.7-2,1.5-2s1.5,0.9,1.5,2c0,1.1-0.7,2-1.5,2S275.1,246.9,275.1,245.8z"/>
							<line class="st20" x1="276.5" y1="244.6" x2="276.5" y2="240.3"/>
							<path class="st19" d="M275.1,239.4c0-1.1,0.7-2,1.5-2s1.5,0.9,1.5,2c0,1.1-0.7,2-1.5,2S275.1,240.5,275.1,239.4z"/>
							<line class="st20" x1="276.5" y1="238.2" x2="276.5" y2="233.9"/>
							<path class="st19" d="M275.1,233c0-1.1,0.7-2,1.5-2s1.5,0.9,1.5,2c0,1.1-0.7,2-1.5,2S275.1,234.1,275.1,233z"/>
							<line class="st20" x1="276.5" y1="231.8" x2="276.5" y2="227.5"/>
						</g>
						<g>
							<path class="st19" d="M275.1,226.1c0-1.1,0.7-2,1.5-2s1.5,0.9,1.5,2c0,1.1-0.7,2-1.5,2S275.1,227.2,275.1,226.1z"/>
							<line class="st20" x1="276.5" y1="224.8" x2="276.5" y2="220.6"/>
							<path class="st19" d="M275.1,219.7c0-1.1,0.7-2,1.5-2s1.5,0.9,1.5,2c0,1.1-0.7,2-1.5,2S275.1,220.8,275.1,219.7z"/>
							<line class="st20" x1="276.5" y1="218.4" x2="276.5" y2="214.2"/>
							<path class="st19" d="M275.1,213.3c0-1.1,0.7-2,1.5-2s1.5,0.9,1.5,2c0,1.1-0.7,2-1.5,2S275.1,214.4,275.1,213.3z"/>
							<line class="st20" x1="276.5" y1="212" x2="276.5" y2="207.8"/>
							<path class="st19" d="M275.1,206.9c0-1.1,0.7-2,1.5-2s1.5,0.9,1.5,2c0,1.1-0.7,2-1.5,2S275.1,208,275.1,206.9z"/>
							<line class="st20" x1="276.5" y1="205.6" x2="276.5" y2="201.4"/>
							<path class="st19" d="M275.1,200.5c0-1.1,0.7-2,1.5-2s1.5,0.9,1.5,2c0,1.1-0.7,2-1.5,2S275.1,201.6,275.1,200.5z"/>
							<line class="st20" x1="276.5" y1="199.2" x2="276.5" y2="195"/>
							<path class="st19" d="M275.1,194.1c0-1.1,0.7-2,1.5-2s1.5,0.9,1.5,2c0,1.1-0.7,2-1.5,2S275.1,195.2,275.1,194.1z"/>
							<line class="st20" x1="276.5" y1="192.8" x2="276.5" y2="188.6"/>
							<path class="st19" d="M275.1,187.7c0-1.1,0.7-2,1.5-2s1.5,0.9,1.5,2c0,1.1-0.7,2-1.5,2S275.1,188.8,275.1,187.7z"/>
							<line class="st20" x1="276.5" y1="186.4" x2="276.5" y2="182.2"/>
							<path class="st19" d="M275.1,181.3c0-1.1,0.7-2,1.5-2s1.5,0.9,1.5,2c0,1.1-0.7,2-1.5,2S275.1,182.4,275.1,181.3z"/>
							<line class="st20" x1="276.5" y1="180" x2="276.5" y2="175.8"/>
							<path class="st19" d="M275.1,174.9c0-1.1,0.7-2,1.5-2s1.5,0.9,1.5,2c0,1.1-0.7,2-1.5,2S275.1,176,275.1,174.9z"/>
							<line class="st20" x1="276.5" y1="173.6" x2="276.5" y2="169.4"/>
							<path class="st19" d="M275.1,168.5c0-1.1,0.7-2,1.5-2s1.5,0.9,1.5,2c0,1.1-0.7,2-1.5,2S275.1,169.6,275.1,168.5z"/>
							<line class="st20" x1="276.5" y1="167.2" x2="276.5" y2="163"/>
							<path class="st19" d="M275.1,162.1c0-1.1,0.7-2,1.5-2s1.5,0.9,1.5,2c0,1.1-0.7,2-1.5,2S275.1,163.2,275.1,162.1z"/>
							<line class="st20" x1="276.5" y1="160.8" x2="276.5" y2="156.6"/>
							<path class="st19" d="M275.1,155.7c0-1.1,0.7-2,1.5-2s1.5,0.9,1.5,2c0,1.1-0.7,2-1.5,2S275.1,156.8,275.1,155.7z"/>
							<line class="st20" x1="276.5" y1="154.4" x2="276.5" y2="150.2"/>
							<path class="st19" d="M275.1,149.3c0-1.1,0.7-2,1.5-2s1.5,0.9,1.5,2c0,1.1-0.7,2-1.5,2S275.1,150.4,275.1,149.3z"/>
							<line class="st20" x1="276.5" y1="148" x2="276.5" y2="143.8"/>
							<path class="st19" d="M275.1,142.9c0-1.1,0.7-2,1.5-2s1.5,0.9,1.5,2c0,1.1-0.7,2-1.5,2S275.1,144,275.1,142.9z"/>
							<line class="st20" x1="276.5" y1="141.6" x2="276.5" y2="137.4"/>
							<path class="st19" d="M275.1,136.5c0-1.1,0.7-2,1.5-2s1.5,0.9,1.5,2c0,1.1-0.7,2-1.5,2S275.1,137.6,275.1,136.5z"/>
							<line class="st20" x1="276.5" y1="135.2" x2="276.5" y2="131"/>
							<path class="st19" d="M275.1,130.1c0-1.1,0.7-2,1.5-2s1.5,0.9,1.5,2c0,1.1-0.7,2-1.5,2S275.1,131.2,275.1,130.1z"/>
							<line class="st20" x1="276.5" y1="128.8" x2="276.5" y2="124.6"/>
							<path class="st19" d="M275.1,123.7c0-1.1,0.7-2,1.5-2s1.5,0.9,1.5,2c0,1.1-0.7,2-1.5,2S275.1,124.8,275.1,123.7z"/>
							<line class="st20" x1="276.5" y1="122.4" x2="276.5" y2="118.2"/>
							<path class="st19" d="M275.1,117.3c0-1.1,0.7-2,1.5-2s1.5,0.9,1.5,2c0,1.1-0.7,2-1.5,2S275.1,118.4,275.1,117.3z"/>
							<line class="st20" x1="276.5" y1="116" x2="276.5" y2="111.8"/>
							<path class="st19" d="M275.1,110.9c0-1.1,0.7-2,1.5-2s1.5,0.9,1.5,2c0,1.1-0.7,2-1.5,2S275.1,112,275.1,110.9z"/>
							<line class="st20" x1="276.5" y1="109.6" x2="276.5" y2="105.4"/>
						</g>
					</g>
					<g class="st21">
						<g>
							<path class="st22" d="M275.1,348.2c0-1.1,0.7-2,1.5-2s1.5,0.9,1.5,2c0,1.1-0.7,2-1.5,2S275.1,349.3,275.1,348.2z"/>
							<line class="st23" x1="276.5" y1="347" x2="276.5" y2="342.7"/>
							<path class="st22" d="M275.1,341.8c0-1.1,0.7-2,1.5-2s1.5,0.9,1.5,2c0,1.1-0.7,2-1.5,2S275.1,342.9,275.1,341.8z"/>
							<line class="st23" x1="276.5" y1="340.6" x2="276.5" y2="336.3"/>
							<path class="st22" d="M275.1,335.4c0-1.1,0.7-2,1.5-2s1.5,0.9,1.5,2c0,1.1-0.7,2-1.5,2S275.1,336.5,275.1,335.4z"/>
							<line class="st23" x1="276.5" y1="334.2" x2="276.5" y2="329.9"/>
							<path class="st22" d="M275.1,329c0-1.1,0.7-2,1.5-2s1.5,0.9,1.5,2s-0.7,2-1.5,2S275.1,330.1,275.1,329z"/>
							<line class="st23" x1="276.5" y1="327.8" x2="276.5" y2="323.5"/>
							<path class="st22" d="M275.1,322.6c0-1.1,0.7-2,1.5-2s1.5,0.9,1.5,2s-0.7,2-1.5,2S275.1,323.7,275.1,322.6z"/>
							<line class="st23" x1="276.5" y1="321.4" x2="276.5" y2="317.1"/>
							<path class="st22" d="M275.1,316.2c0-1.1,0.7-2,1.5-2s1.5,0.9,1.5,2s-0.7,2-1.5,2S275.1,317.3,275.1,316.2z"/>
							<line class="st23" x1="276.5" y1="315" x2="276.5" y2="310.7"/>
							<ellipse class="st22" cx="276.5" cy="309.8" rx="1.5" ry="2"/>
							<line class="st23" x1="276.5" y1="308.6" x2="276.5" y2="304.3"/>
							<ellipse class="st22" cx="276.5" cy="303.4" rx="1.5" ry="2"/>
							<line class="st23" x1="276.5" y1="302.2" x2="276.5" y2="297.9"/>
							<ellipse class="st22" cx="276.5" cy="297" rx="1.5" ry="2"/>
							<line class="st23" x1="276.5" y1="295.8" x2="276.5" y2="291.5"/>
							<ellipse class="st22" cx="276.5" cy="290.6" rx="1.5" ry="2"/>
							<line class="st23" x1="276.5" y1="289.4" x2="276.5" y2="285.1"/>
							<ellipse class="st22" cx="276.5" cy="284.2" rx="1.5" ry="2"/>
							<line class="st23" x1="276.5" y1="283" x2="276.5" y2="278.7"/>
							<ellipse class="st22" cx="276.5" cy="277.8" rx="1.5" ry="2"/>
							<line class="st23" x1="276.5" y1="276.6" x2="276.5" y2="272.3"/>
							<ellipse class="st22" cx="276.5" cy="271.4" rx="1.5" ry="2"/>
							<line class="st23" x1="276.5" y1="270.2" x2="276.5" y2="265.9"/>
							<path class="st22" d="M275.1,265c0-1.1,0.7-2,1.5-2s1.5,0.9,1.5,2c0,1.1-0.7,2-1.5,2S275.1,266.1,275.1,265z"/>
							<line class="st23" x1="276.5" y1="263.8" x2="276.5" y2="259.5"/>
							<path class="st22" d="M275.1,258.6c0-1.1,0.7-2,1.5-2s1.5,0.9,1.5,2c0,1.1-0.7,2-1.5,2S275.1,259.7,275.1,258.6z"/>
							<line class="st23" x1="276.5" y1="257.4" x2="276.5" y2="253.1"/>
							<path class="st22" d="M275.1,252.2c0-1.1,0.7-2,1.5-2s1.5,0.9,1.5,2c0,1.1-0.7,2-1.5,2S275.1,253.3,275.1,252.2z"/>
							<line class="st23" x1="276.5" y1="251" x2="276.5" y2="246.7"/>
							<path class="st22" d="M275.1,245.8c0-1.1,0.7-2,1.5-2s1.5,0.9,1.5,2c0,1.1-0.7,2-1.5,2S275.1,246.9,275.1,245.8z"/>
							<line class="st23" x1="276.5" y1="244.6" x2="276.5" y2="240.3"/>
							<path class="st22" d="M275.1,239.4c0-1.1,0.7-2,1.5-2s1.5,0.9,1.5,2c0,1.1-0.7,2-1.5,2S275.1,240.5,275.1,239.4z"/>
							<line class="st23" x1="276.5" y1="238.2" x2="276.5" y2="233.9"/>
							<path class="st22" d="M275.1,233c0-1.1,0.7-2,1.5-2s1.5,0.9,1.5,2c0,1.1-0.7,2-1.5,2S275.1,234.1,275.1,233z"/>
							<line class="st23" x1="276.5" y1="231.8" x2="276.5" y2="227.5"/>
						</g>
						<g>
							<path class="st22" d="M275.1,226.1c0-1.1,0.7-2,1.5-2s1.5,0.9,1.5,2c0,1.1-0.7,2-1.5,2S275.1,227.2,275.1,226.1z"/>
							<line class="st23" x1="276.5" y1="224.8" x2="276.5" y2="220.6"/>
							<path class="st22" d="M275.1,219.7c0-1.1,0.7-2,1.5-2s1.5,0.9,1.5,2c0,1.1-0.7,2-1.5,2S275.1,220.8,275.1,219.7z"/>
							<line class="st23" x1="276.5" y1="218.4" x2="276.5" y2="214.2"/>
							<path class="st22" d="M275.1,213.3c0-1.1,0.7-2,1.5-2s1.5,0.9,1.5,2c0,1.1-0.7,2-1.5,2S275.1,214.4,275.1,213.3z"/>
							<line class="st23" x1="276.5" y1="212" x2="276.5" y2="207.8"/>
							<path class="st22" d="M275.1,206.9c0-1.1,0.7-2,1.5-2s1.5,0.9,1.5,2c0,1.1-0.7,2-1.5,2S275.1,208,275.1,206.9z"/>
							<line class="st23" x1="276.5" y1="205.6" x2="276.5" y2="201.4"/>
							<path class="st22" d="M275.1,200.5c0-1.1,0.7-2,1.5-2s1.5,0.9,1.5,2c0,1.1-0.7,2-1.5,2S275.1,201.6,275.1,200.5z"/>
							<line class="st23" x1="276.5" y1="199.2" x2="276.5" y2="195"/>
							<path class="st22" d="M275.1,194.1c0-1.1,0.7-2,1.5-2s1.5,0.9,1.5,2c0,1.1-0.7,2-1.5,2S275.1,195.2,275.1,194.1z"/>
							<line class="st23" x1="276.5" y1="192.8" x2="276.5" y2="188.6"/>
							<path class="st22" d="M275.1,187.7c0-1.1,0.7-2,1.5-2s1.5,0.9,1.5,2c0,1.1-0.7,2-1.5,2S275.1,188.8,275.1,187.7z"/>
							<line class="st23" x1="276.5" y1="186.4" x2="276.5" y2="182.2"/>
							<path class="st22" d="M275.1,181.3c0-1.1,0.7-2,1.5-2s1.5,0.9,1.5,2c0,1.1-0.7,2-1.5,2S275.1,182.4,275.1,181.3z"/>
							<line class="st23" x1="276.5" y1="180" x2="276.5" y2="175.8"/>
							<path class="st22" d="M275.1,174.9c0-1.1,0.7-2,1.5-2s1.5,0.9,1.5,2c0,1.1-0.7,2-1.5,2S275.1,176,275.1,174.9z"/>
							<line class="st23" x1="276.5" y1="173.6" x2="276.5" y2="169.4"/>
							<path class="st22" d="M275.1,168.5c0-1.1,0.7-2,1.5-2s1.5,0.9,1.5,2c0,1.1-0.7,2-1.5,2S275.1,169.6,275.1,168.5z"/>
							<line class="st23" x1="276.5" y1="167.2" x2="276.5" y2="163"/>
							<path class="st22" d="M275.1,162.1c0-1.1,0.7-2,1.5-2s1.5,0.9,1.5,2c0,1.1-0.7,2-1.5,2S275.1,163.2,275.1,162.1z"/>
							<line class="st23" x1="276.5" y1="160.8" x2="276.5" y2="156.6"/>
							<path class="st22" d="M275.1,155.7c0-1.1,0.7-2,1.5-2s1.5,0.9,1.5,2c0,1.1-0.7,2-1.5,2S275.1,156.8,275.1,155.7z"/>
							<line class="st23" x1="276.5" y1="154.4" x2="276.5" y2="150.2"/>
							<path class="st22" d="M275.1,149.3c0-1.1,0.7-2,1.5-2s1.5,0.9,1.5,2c0,1.1-0.7,2-1.5,2S275.1,150.4,275.1,149.3z"/>
							<line class="st23" x1="276.5" y1="148" x2="276.5" y2="143.8"/>
							<path class="st22" d="M275.1,142.9c0-1.1,0.7-2,1.5-2s1.5,0.9,1.5,2c0,1.1-0.7,2-1.5,2S275.1,144,275.1,142.9z"/>
							<line class="st23" x1="276.5" y1="141.6" x2="276.5" y2="137.4"/>
							<path class="st22" d="M275.1,136.5c0-1.1,0.7-2,1.5-2s1.5,0.9,1.5,2c0,1.1-0.7,2-1.5,2S275.1,137.6,275.1,136.5z"/>
							<line class="st23" x1="276.5" y1="135.2" x2="276.5" y2="131"/>
							<path class="st22" d="M275.1,130.1c0-1.1,0.7-2,1.5-2s1.5,0.9,1.5,2c0,1.1-0.7,2-1.5,2S275.1,131.2,275.1,130.1z"/>
							<line class="st23" x1="276.5" y1="128.8" x2="276.5" y2="124.6"/>
							<path class="st22" d="M275.1,123.7c0-1.1,0.7-2,1.5-2s1.5,0.9,1.5,2c0,1.1-0.7,2-1.5,2S275.1,124.8,275.1,123.7z"/>
							<line class="st23" x1="276.5" y1="122.4" x2="276.5" y2="118.2"/>
							<path class="st22" d="M275.1,117.3c0-1.1,0.7-2,1.5-2s1.5,0.9,1.5,2c0,1.1-0.7,2-1.5,2S275.1,118.4,275.1,117.3z"/>
							<line class="st23" x1="276.5" y1="116" x2="276.5" y2="111.8"/>
							<path class="st22" d="M275.1,110.9c0-1.1,0.7-2,1.5-2s1.5,0.9,1.5,2c0,1.1-0.7,2-1.5,2S275.1,112,275.1,110.9z"/>
							<line class="st23" x1="276.5" y1="109.6" x2="276.5" y2="105.4"/>
						</g>
					</g>
				</g>
				<path class="st13" d="M382.7,358.7H259.5c-2.8,0-5-2.2-5-5v-6.8c0-2.8,2.2-5,5-5h123.2c2.8,0,5,2.2,5,5v6.8
					C387.7,356.5,385.5,358.7,382.7,358.7z"/>
				<path class="st17" d="M382.7,358.7H259.5c-2.8,0-5-2.2-5-5v-6.8c0-2.8,2.2-5,5-5h123.2c2.8,0,5,2.2,5,5v6.8
					C387.7,356.5,385.5,358.7,382.7,358.7z"/>
				<path class="st13" d="M382.7,358.7h-30.9c-2.8,0-5-2.2-5-5v-6.8c0-2.8,2.2-5,5-5h30.9c2.8,0,5,2.2,5,5v6.8
					C387.7,356.5,385.5,358.7,382.7,358.7z"/>
				<path class="st10" d="M371.6,350.3c0,2.4-1.9,4.3-4.3,4.3c-2.4,0-4.3-1.9-4.3-4.3s1.9-4.3,4.3-4.3
					C369.7,345.9,371.6,347.9,371.6,350.3z"/>
				<g>
					<g>
						<g>
							<path class="st19" d="M366.4,348.2c0-1.1,0.7-2,1.5-2s1.5,0.9,1.5,2c0,1.1-0.7,2-1.5,2S366.4,349.3,366.4,348.2z"/>
							<line class="st20" x1="367.8" y1="347" x2="367.8" y2="342.7"/>
							<path class="st19" d="M366.4,341.8c0-1.1,0.7-2,1.5-2s1.5,0.9,1.5,2c0,1.1-0.7,2-1.5,2S366.4,342.9,366.4,341.8z"/>
							<line class="st20" x1="367.8" y1="340.6" x2="367.8" y2="336.3"/>
							<path class="st19" d="M366.4,335.4c0-1.1,0.7-2,1.5-2s1.5,0.9,1.5,2c0,1.1-0.7,2-1.5,2S366.4,336.5,366.4,335.4z"/>
							<line class="st20" x1="367.8" y1="334.2" x2="367.8" y2="329.9"/>
							<path class="st19" d="M366.4,329c0-1.1,0.7-2,1.5-2s1.5,0.9,1.5,2s-0.7,2-1.5,2S366.4,330.1,366.4,329z"/>
							<line class="st20" x1="367.8" y1="327.8" x2="367.8" y2="323.5"/>
							<path class="st19" d="M366.4,322.6c0-1.1,0.7-2,1.5-2s1.5,0.9,1.5,2s-0.7,2-1.5,2S366.4,323.7,366.4,322.6z"/>
							<line class="st20" x1="367.8" y1="321.4" x2="367.8" y2="317.1"/>
							<path class="st19" d="M366.4,316.2c0-1.1,0.7-2,1.5-2s1.5,0.9,1.5,2s-0.7,2-1.5,2S366.4,317.3,366.4,316.2z"/>
							<line class="st20" x1="367.8" y1="315" x2="367.8" y2="310.7"/>
							<ellipse class="st19" cx="367.8" cy="309.8" rx="1.5" ry="2"/>
							<line class="st20" x1="367.8" y1="308.6" x2="367.8" y2="304.3"/>
							<ellipse class="st19" cx="367.8" cy="303.4" rx="1.5" ry="2"/>
							<line class="st20" x1="367.8" y1="302.2" x2="367.8" y2="297.9"/>
							<ellipse class="st19" cx="367.8" cy="297" rx="1.5" ry="2"/>
							<line class="st20" x1="367.8" y1="295.8" x2="367.8" y2="291.5"/>
							<ellipse class="st19" cx="367.8" cy="290.6" rx="1.5" ry="2"/>
							<line class="st20" x1="367.8" y1="289.4" x2="367.8" y2="285.1"/>
							<ellipse class="st19" cx="367.8" cy="284.2" rx="1.5" ry="2"/>
							<line class="st20" x1="367.8" y1="283" x2="367.8" y2="278.7"/>
							<ellipse class="st19" cx="367.8" cy="277.8" rx="1.5" ry="2"/>
							<line class="st20" x1="367.8" y1="276.6" x2="367.8" y2="272.3"/>
							<ellipse class="st19" cx="367.8" cy="271.4" rx="1.5" ry="2"/>
							<line class="st20" x1="367.8" y1="270.2" x2="367.8" y2="265.9"/>
							<path class="st19" d="M366.4,265c0-1.1,0.7-2,1.5-2s1.5,0.9,1.5,2c0,1.1-0.7,2-1.5,2S366.4,266.1,366.4,265z"/>
							<line class="st20" x1="367.8" y1="263.8" x2="367.8" y2="259.5"/>
							<path class="st19" d="M366.4,258.6c0-1.1,0.7-2,1.5-2s1.5,0.9,1.5,2c0,1.1-0.7,2-1.5,2S366.4,259.7,366.4,258.6z"/>
							<line class="st20" x1="367.8" y1="257.4" x2="367.8" y2="253.1"/>
							<path class="st19" d="M366.4,252.2c0-1.1,0.7-2,1.5-2s1.5,0.9,1.5,2c0,1.1-0.7,2-1.5,2S366.4,253.3,366.4,252.2z"/>
							<line class="st20" x1="367.8" y1="251" x2="367.8" y2="246.7"/>
							<path class="st19" d="M366.4,245.8c0-1.1,0.7-2,1.5-2s1.5,0.9,1.5,2c0,1.1-0.7,2-1.5,2S366.4,246.9,366.4,245.8z"/>
							<line class="st20" x1="367.8" y1="244.6" x2="367.8" y2="240.3"/>
							<path class="st19" d="M366.4,239.4c0-1.1,0.7-2,1.5-2s1.5,0.9,1.5,2c0,1.1-0.7,2-1.5,2S366.4,240.5,366.4,239.4z"/>
							<line class="st20" x1="367.8" y1="238.2" x2="367.8" y2="233.9"/>
							<path class="st19" d="M366.4,233c0-1.1,0.7-2,1.5-2s1.5,0.9,1.5,2c0,1.1-0.7,2-1.5,2S366.4,234.1,366.4,233z"/>
							<line class="st20" x1="367.8" y1="231.8" x2="367.8" y2="227.5"/>
						</g>
						<g>
							<path class="st19" d="M366.4,226.1c0-1.1,0.7-2,1.5-2s1.5,0.9,1.5,2c0,1.1-0.7,2-1.5,2S366.4,227.2,366.4,226.1z"/>
							<line class="st20" x1="367.8" y1="224.8" x2="367.8" y2="220.6"/>
							<path class="st19" d="M366.4,219.7c0-1.1,0.7-2,1.5-2s1.5,0.9,1.5,2c0,1.1-0.7,2-1.5,2S366.4,220.8,366.4,219.7z"/>
							<line class="st20" x1="367.8" y1="218.4" x2="367.8" y2="214.2"/>
							<path class="st19" d="M366.4,213.3c0-1.1,0.7-2,1.5-2s1.5,0.9,1.5,2c0,1.1-0.7,2-1.5,2S366.4,214.4,366.4,213.3z"/>
							<line class="st20" x1="367.8" y1="212" x2="367.8" y2="207.8"/>
							<path class="st19" d="M366.4,206.9c0-1.1,0.7-2,1.5-2s1.5,0.9,1.5,2c0,1.1-0.7,2-1.5,2S366.4,208,366.4,206.9z"/>
							<line class="st20" x1="367.8" y1="205.6" x2="367.8" y2="201.4"/>
							<path class="st19" d="M366.4,200.5c0-1.1,0.7-2,1.5-2s1.5,0.9,1.5,2c0,1.1-0.7,2-1.5,2S366.4,201.6,366.4,200.5z"/>
							<line class="st20" x1="367.8" y1="199.2" x2="367.8" y2="195"/>
							<path class="st19" d="M366.4,194.1c0-1.1,0.7-2,1.5-2s1.5,0.9,1.5,2c0,1.1-0.7,2-1.5,2S366.4,195.2,366.4,194.1z"/>
							<line class="st20" x1="367.8" y1="192.8" x2="367.8" y2="188.6"/>
							<path class="st19" d="M366.4,187.7c0-1.1,0.7-2,1.5-2s1.5,0.9,1.5,2c0,1.1-0.7,2-1.5,2S366.4,188.8,366.4,187.7z"/>
							<line class="st20" x1="367.8" y1="186.4" x2="367.8" y2="182.2"/>
							<path class="st19" d="M366.4,181.3c0-1.1,0.7-2,1.5-2s1.5,0.9,1.5,2c0,1.1-0.7,2-1.5,2S366.4,182.4,366.4,181.3z"/>
							<line class="st20" x1="367.8" y1="180" x2="367.8" y2="175.8"/>
							<path class="st19" d="M366.4,174.9c0-1.1,0.7-2,1.5-2s1.5,0.9,1.5,2c0,1.1-0.7,2-1.5,2S366.4,176,366.4,174.9z"/>
							<line class="st20" x1="367.8" y1="173.6" x2="367.8" y2="169.4"/>
							<path class="st19" d="M366.4,168.5c0-1.1,0.7-2,1.5-2s1.5,0.9,1.5,2c0,1.1-0.7,2-1.5,2S366.4,169.6,366.4,168.5z"/>
							<line class="st20" x1="367.8" y1="167.2" x2="367.8" y2="163"/>
							<path class="st19" d="M366.4,162.1c0-1.1,0.7-2,1.5-2s1.5,0.9,1.5,2c0,1.1-0.7,2-1.5,2S366.4,163.2,366.4,162.1z"/>
							<line class="st20" x1="367.8" y1="160.8" x2="367.8" y2="156.6"/>
							<path class="st19" d="M366.4,155.7c0-1.1,0.7-2,1.5-2s1.5,0.9,1.5,2c0,1.1-0.7,2-1.5,2S366.4,156.8,366.4,155.7z"/>
							<line class="st20" x1="367.8" y1="154.4" x2="367.8" y2="150.2"/>
							<path class="st19" d="M366.4,149.3c0-1.1,0.7-2,1.5-2s1.5,0.9,1.5,2c0,1.1-0.7,2-1.5,2S366.4,150.4,366.4,149.3z"/>
							<line class="st20" x1="367.8" y1="148" x2="367.8" y2="143.8"/>
							<path class="st19" d="M366.4,142.9c0-1.1,0.7-2,1.5-2s1.5,0.9,1.5,2c0,1.1-0.7,2-1.5,2S366.4,144,366.4,142.9z"/>
							<line class="st20" x1="367.8" y1="141.6" x2="367.8" y2="137.4"/>
							<path class="st19" d="M366.4,136.5c0-1.1,0.7-2,1.5-2s1.5,0.9,1.5,2c0,1.1-0.7,2-1.5,2S366.4,137.6,366.4,136.5z"/>
							<line class="st20" x1="367.8" y1="135.2" x2="367.8" y2="131"/>
							<path class="st19" d="M366.4,130.1c0-1.1,0.7-2,1.5-2s1.5,0.9,1.5,2c0,1.1-0.7,2-1.5,2S366.4,131.2,366.4,130.1z"/>
							<line class="st20" x1="367.8" y1="128.8" x2="367.8" y2="124.6"/>
							<path class="st19" d="M366.4,123.7c0-1.1,0.7-2,1.5-2s1.5,0.9,1.5,2c0,1.1-0.7,2-1.5,2S366.4,124.8,366.4,123.7z"/>
							<line class="st20" x1="367.8" y1="122.4" x2="367.8" y2="118.2"/>
							<path class="st19" d="M366.4,117.3c0-1.1,0.7-2,1.5-2s1.5,0.9,1.5,2c0,1.1-0.7,2-1.5,2S366.4,118.4,366.4,117.3z"/>
							<line class="st20" x1="367.8" y1="116" x2="367.8" y2="111.8"/>
							<path class="st19" d="M366.4,110.9c0-1.1,0.7-2,1.5-2s1.5,0.9,1.5,2c0,1.1-0.7,2-1.5,2S366.4,112,366.4,110.9z"/>
							<line class="st20" x1="367.8" y1="109.6" x2="367.8" y2="105.4"/>
						</g>
					</g>
					<g class="st21">
						<g>
							<path class="st22" d="M366.4,348.2c0-1.1,0.7-2,1.5-2s1.5,0.9,1.5,2c0,1.1-0.7,2-1.5,2S366.4,349.3,366.4,348.2z"/>
							<line class="st23" x1="367.8" y1="347" x2="367.8" y2="342.7"/>
							<path class="st22" d="M366.4,341.8c0-1.1,0.7-2,1.5-2s1.5,0.9,1.5,2c0,1.1-0.7,2-1.5,2S366.4,342.9,366.4,341.8z"/>
							<line class="st23" x1="367.8" y1="340.6" x2="367.8" y2="336.3"/>
							<path class="st22" d="M366.4,335.4c0-1.1,0.7-2,1.5-2s1.5,0.9,1.5,2c0,1.1-0.7,2-1.5,2S366.4,336.5,366.4,335.4z"/>
							<line class="st23" x1="367.8" y1="334.2" x2="367.8" y2="329.9"/>
							<path class="st22" d="M366.4,329c0-1.1,0.7-2,1.5-2s1.5,0.9,1.5,2s-0.7,2-1.5,2S366.4,330.1,366.4,329z"/>
							<line class="st23" x1="367.8" y1="327.8" x2="367.8" y2="323.5"/>
							<path class="st22" d="M366.4,322.6c0-1.1,0.7-2,1.5-2s1.5,0.9,1.5,2s-0.7,2-1.5,2S366.4,323.7,366.4,322.6z"/>
							<line class="st23" x1="367.8" y1="321.4" x2="367.8" y2="317.1"/>
							<path class="st22" d="M366.4,316.2c0-1.1,0.7-2,1.5-2s1.5,0.9,1.5,2s-0.7,2-1.5,2S366.4,317.3,366.4,316.2z"/>
							<line class="st23" x1="367.8" y1="315" x2="367.8" y2="310.7"/>
							<ellipse class="st22" cx="367.8" cy="309.8" rx="1.5" ry="2"/>
							<line class="st23" x1="367.8" y1="308.6" x2="367.8" y2="304.3"/>
							<ellipse class="st22" cx="367.8" cy="303.4" rx="1.5" ry="2"/>
							<line class="st23" x1="367.8" y1="302.2" x2="367.8" y2="297.9"/>
							<ellipse class="st22" cx="367.8" cy="297" rx="1.5" ry="2"/>
							<line class="st23" x1="367.8" y1="295.8" x2="367.8" y2="291.5"/>
							<ellipse class="st22" cx="367.8" cy="290.6" rx="1.5" ry="2"/>
							<line class="st23" x1="367.8" y1="289.4" x2="367.8" y2="285.1"/>
							<ellipse class="st22" cx="367.8" cy="284.2" rx="1.5" ry="2"/>
							<line class="st23" x1="367.8" y1="283" x2="367.8" y2="278.7"/>
							<ellipse class="st22" cx="367.8" cy="277.8" rx="1.5" ry="2"/>
							<line class="st23" x1="367.8" y1="276.6" x2="367.8" y2="272.3"/>
							<ellipse class="st22" cx="367.8" cy="271.4" rx="1.5" ry="2"/>
							<line class="st23" x1="367.8" y1="270.2" x2="367.8" y2="265.9"/>
							<path class="st22" d="M366.4,265c0-1.1,0.7-2,1.5-2s1.5,0.9,1.5,2c0,1.1-0.7,2-1.5,2S366.4,266.1,366.4,265z"/>
							<line class="st23" x1="367.8" y1="263.8" x2="367.8" y2="259.5"/>
							<path class="st22" d="M366.4,258.6c0-1.1,0.7-2,1.5-2s1.5,0.9,1.5,2c0,1.1-0.7,2-1.5,2S366.4,259.7,366.4,258.6z"/>
							<line class="st23" x1="367.8" y1="257.4" x2="367.8" y2="253.1"/>
							<path class="st22" d="M366.4,252.2c0-1.1,0.7-2,1.5-2s1.5,0.9,1.5,2c0,1.1-0.7,2-1.5,2S366.4,253.3,366.4,252.2z"/>
							<line class="st23" x1="367.8" y1="251" x2="367.8" y2="246.7"/>
							<path class="st22" d="M366.4,245.8c0-1.1,0.7-2,1.5-2s1.5,0.9,1.5,2c0,1.1-0.7,2-1.5,2S366.4,246.9,366.4,245.8z"/>
							<line class="st23" x1="367.8" y1="244.6" x2="367.8" y2="240.3"/>
							<path class="st22" d="M366.4,239.4c0-1.1,0.7-2,1.5-2s1.5,0.9,1.5,2c0,1.1-0.7,2-1.5,2S366.4,240.5,366.4,239.4z"/>
							<line class="st23" x1="367.8" y1="238.2" x2="367.8" y2="233.9"/>
							<path class="st22" d="M366.4,233c0-1.1,0.7-2,1.5-2s1.5,0.9,1.5,2c0,1.1-0.7,2-1.5,2S366.4,234.1,366.4,233z"/>
							<line class="st23" x1="367.8" y1="231.8" x2="367.8" y2="227.5"/>
						</g>
						<g>
							<path class="st22" d="M366.4,226.1c0-1.1,0.7-2,1.5-2s1.5,0.9,1.5,2c0,1.1-0.7,2-1.5,2S366.4,227.2,366.4,226.1z"/>
							<line class="st23" x1="367.8" y1="224.8" x2="367.8" y2="220.6"/>
							<path class="st22" d="M366.4,219.7c0-1.1,0.7-2,1.5-2s1.5,0.9,1.5,2c0,1.1-0.7,2-1.5,2S366.4,220.8,366.4,219.7z"/>
							<line class="st23" x1="367.8" y1="218.4" x2="367.8" y2="214.2"/>
							<path class="st22" d="M366.4,213.3c0-1.1,0.7-2,1.5-2s1.5,0.9,1.5,2c0,1.1-0.7,2-1.5,2S366.4,214.4,366.4,213.3z"/>
							<line class="st23" x1="367.8" y1="212" x2="367.8" y2="207.8"/>
							<path class="st22" d="M366.4,206.9c0-1.1,0.7-2,1.5-2s1.5,0.9,1.5,2c0,1.1-0.7,2-1.5,2S366.4,208,366.4,206.9z"/>
							<line class="st23" x1="367.8" y1="205.6" x2="367.8" y2="201.4"/>
							<path class="st22" d="M366.4,200.5c0-1.1,0.7-2,1.5-2s1.5,0.9,1.5,2c0,1.1-0.7,2-1.5,2S366.4,201.6,366.4,200.5z"/>
							<line class="st23" x1="367.8" y1="199.2" x2="367.8" y2="195"/>
							<path class="st22" d="M366.4,194.1c0-1.1,0.7-2,1.5-2s1.5,0.9,1.5,2c0,1.1-0.7,2-1.5,2S366.4,195.2,366.4,194.1z"/>
							<line class="st23" x1="367.8" y1="192.8" x2="367.8" y2="188.6"/>
							<path class="st22" d="M366.4,187.7c0-1.1,0.7-2,1.5-2s1.5,0.9,1.5,2c0,1.1-0.7,2-1.5,2S366.4,188.8,366.4,187.7z"/>
							<line class="st23" x1="367.8" y1="186.4" x2="367.8" y2="182.2"/>
							<path class="st22" d="M366.4,181.3c0-1.1,0.7-2,1.5-2s1.5,0.9,1.5,2c0,1.1-0.7,2-1.5,2S366.4,182.4,366.4,181.3z"/>
							<line class="st23" x1="367.8" y1="180" x2="367.8" y2="175.8"/>
							<path class="st22" d="M366.4,174.9c0-1.1,0.7-2,1.5-2s1.5,0.9,1.5,2c0,1.1-0.7,2-1.5,2S366.4,176,366.4,174.9z"/>
							<line class="st23" x1="367.8" y1="173.6" x2="367.8" y2="169.4"/>
							<path class="st22" d="M366.4,168.5c0-1.1,0.7-2,1.5-2s1.5,0.9,1.5,2c0,1.1-0.7,2-1.5,2S366.4,169.6,366.4,168.5z"/>
							<line class="st23" x1="367.8" y1="167.2" x2="367.8" y2="163"/>
							<path class="st22" d="M366.4,162.1c0-1.1,0.7-2,1.5-2s1.5,0.9,1.5,2c0,1.1-0.7,2-1.5,2S366.4,163.2,366.4,162.1z"/>
							<line class="st23" x1="367.8" y1="160.8" x2="367.8" y2="156.6"/>
							<path class="st22" d="M366.4,155.7c0-1.1,0.7-2,1.5-2s1.5,0.9,1.5,2c0,1.1-0.7,2-1.5,2S366.4,156.8,366.4,155.7z"/>
							<line class="st23" x1="367.8" y1="154.4" x2="367.8" y2="150.2"/>
							<path class="st22" d="M366.4,149.3c0-1.1,0.7-2,1.5-2s1.5,0.9,1.5,2c0,1.1-0.7,2-1.5,2S366.4,150.4,366.4,149.3z"/>
							<line class="st23" x1="367.8" y1="148" x2="367.8" y2="143.8"/>
							<path class="st22" d="M366.4,142.9c0-1.1,0.7-2,1.5-2s1.5,0.9,1.5,2c0,1.1-0.7,2-1.5,2S366.4,144,366.4,142.9z"/>
							<line class="st23" x1="367.8" y1="141.6" x2="367.8" y2="137.4"/>
							<path class="st22" d="M366.4,136.5c0-1.1,0.7-2,1.5-2s1.5,0.9,1.5,2c0,1.1-0.7,2-1.5,2S366.4,137.6,366.4,136.5z"/>
							<line class="st23" x1="367.8" y1="135.2" x2="367.8" y2="131"/>
							<path class="st22" d="M366.4,130.1c0-1.1,0.7-2,1.5-2s1.5,0.9,1.5,2c0,1.1-0.7,2-1.5,2S366.4,131.2,366.4,130.1z"/>
							<line class="st23" x1="367.8" y1="128.8" x2="367.8" y2="124.6"/>
							<path class="st22" d="M366.4,123.7c0-1.1,0.7-2,1.5-2s1.5,0.9,1.5,2c0,1.1-0.7,2-1.5,2S366.4,124.8,366.4,123.7z"/>
							<line class="st23" x1="367.8" y1="122.4" x2="367.8" y2="118.2"/>
							<path class="st22" d="M366.4,117.3c0-1.1,0.7-2,1.5-2s1.5,0.9,1.5,2c0,1.1-0.7,2-1.5,2S366.4,118.4,366.4,117.3z"/>
							<line class="st23" x1="367.8" y1="116" x2="367.8" y2="111.8"/>
							<path class="st22" d="M366.4,110.9c0-1.1,0.7-2,1.5-2s1.5,0.9,1.5,2c0,1.1-0.7,2-1.5,2S366.4,112,366.4,110.9z"/>
							<line class="st23" x1="367.8" y1="109.6" x2="367.8" y2="105.4"/>
						</g>
					</g>
				</g>
			</g>
			<g>
				<g>
					<g>
						<g>
							<path class="st19" d="M130,233c0-1.1,0.7-2,1.5-2s1.5,0.9,1.5,2c0,1.1-0.7,2-1.5,2S130,234.1,130,233z"/>
							<line class="st20" x1="131.5" y1="231.8" x2="131.5" y2="227.5"/>
						</g>
						<g>
							<path class="st19" d="M130,226.1c0-1.1,0.7-2,1.5-2s1.5,0.9,1.5,2c0,1.1-0.7,2-1.5,2S130,227.2,130,226.1z"/>
							<line class="st20" x1="131.5" y1="224.8" x2="131.5" y2="220.6"/>
							<path class="st19" d="M130,219.7c0-1.1,0.7-2,1.5-2s1.5,0.9,1.5,2c0,1.1-0.7,2-1.5,2S130,220.8,130,219.7z"/>
							<line class="st20" x1="131.5" y1="218.4" x2="131.5" y2="214.2"/>
							<path class="st19" d="M130,213.3c0-1.1,0.7-2,1.5-2s1.5,0.9,1.5,2c0,1.1-0.7,2-1.5,2S130,214.4,130,213.3z"/>
							<line class="st20" x1="131.5" y1="212" x2="131.5" y2="207.8"/>
							<path class="st19" d="M130,206.9c0-1.1,0.7-2,1.5-2s1.5,0.9,1.5,2c0,1.1-0.7,2-1.5,2S130,208,130,206.9z"/>
							<line class="st20" x1="131.5" y1="205.6" x2="131.5" y2="201.4"/>
							<path class="st19" d="M130,200.5c0-1.1,0.7-2,1.5-2s1.5,0.9,1.5,2c0,1.1-0.7,2-1.5,2S130,201.6,130,200.5z"/>
							<line class="st20" x1="131.5" y1="199.2" x2="131.5" y2="195"/>
							<path class="st19" d="M130,194.1c0-1.1,0.7-2,1.5-2s1.5,0.9,1.5,2c0,1.1-0.7,2-1.5,2S130,195.2,130,194.1z"/>
							<line class="st20" x1="131.5" y1="192.8" x2="131.5" y2="188.6"/>
							<path class="st19" d="M130,187.7c0-1.1,0.7-2,1.5-2s1.5,0.9,1.5,2c0,1.1-0.7,2-1.5,2S130,188.8,130,187.7z"/>
							<line class="st20" x1="131.5" y1="186.4" x2="131.5" y2="182.2"/>
							<path class="st19" d="M130,181.3c0-1.1,0.7-2,1.5-2s1.5,0.9,1.5,2c0,1.1-0.7,2-1.5,2S130,182.4,130,181.3z"/>
							<line class="st20" x1="131.5" y1="180" x2="131.5" y2="175.8"/>
							<path class="st19" d="M130,174.9c0-1.1,0.7-2,1.5-2s1.5,0.9,1.5,2c0,1.1-0.7,2-1.5,2S130,176,130,174.9z"/>
							<line class="st20" x1="131.5" y1="173.6" x2="131.5" y2="169.4"/>
							<path class="st19" d="M130,168.5c0-1.1,0.7-2,1.5-2s1.5,0.9,1.5,2c0,1.1-0.7,2-1.5,2S130,169.6,130,168.5z"/>
							<line class="st20" x1="131.5" y1="167.2" x2="131.5" y2="163"/>
							<path class="st19" d="M130,162.1c0-1.1,0.7-2,1.5-2s1.5,0.9,1.5,2c0,1.1-0.7,2-1.5,2S130,163.2,130,162.1z"/>
							<line class="st20" x1="131.5" y1="160.8" x2="131.5" y2="156.6"/>
							<path class="st19" d="M130,155.7c0-1.1,0.7-2,1.5-2s1.5,0.9,1.5,2c0,1.1-0.7,2-1.5,2S130,156.8,130,155.7z"/>
							<line class="st20" x1="131.5" y1="154.4" x2="131.5" y2="150.2"/>
							<path class="st19" d="M130,149.3c0-1.1,0.7-2,1.5-2s1.5,0.9,1.5,2c0,1.1-0.7,2-1.5,2S130,150.4,130,149.3z"/>
							<line class="st20" x1="131.5" y1="148" x2="131.5" y2="143.8"/>
							<path class="st19" d="M130,142.9c0-1.1,0.7-2,1.5-2s1.5,0.9,1.5,2c0,1.1-0.7,2-1.5,2S130,144,130,142.9z"/>
							<line class="st20" x1="131.5" y1="141.6" x2="131.5" y2="137.4"/>
							<path class="st19" d="M130,136.5c0-1.1,0.7-2,1.5-2s1.5,0.9,1.5,2c0,1.1-0.7,2-1.5,2S130,137.6,130,136.5z"/>
							<line class="st20" x1="131.5" y1="135.2" x2="131.5" y2="131"/>
							<path class="st19" d="M130,130.1c0-1.1,0.7-2,1.5-2s1.5,0.9,1.5,2c0,1.1-0.7,2-1.5,2S130,131.2,130,130.1z"/>
							<line class="st20" x1="131.5" y1="128.8" x2="131.5" y2="124.6"/>
							<path class="st19" d="M130,123.7c0-1.1,0.7-2,1.5-2s1.5,0.9,1.5,2c0,1.1-0.7,2-1.5,2S130,124.8,130,123.7z"/>
							<line class="st20" x1="131.5" y1="122.4" x2="131.5" y2="118.2"/>
							<path class="st19" d="M130,117.3c0-1.1,0.7-2,1.5-2s1.5,0.9,1.5,2c0,1.1-0.7,2-1.5,2S130,118.4,130,117.3z"/>
							<line class="st20" x1="131.5" y1="116" x2="131.5" y2="111.8"/>
							<path class="st19" d="M130,110.9c0-1.1,0.7-2,1.5-2s1.5,0.9,1.5,2c0,1.1-0.7,2-1.5,2S130,112,130,110.9z"/>
							<line class="st20" x1="131.5" y1="109.6" x2="131.5" y2="105.4"/>
						</g>
					</g>
				</g>
				<g class="st21">
					<g>
						<g>
							<path class="st22" d="M130,233c0-1.1,0.7-2,1.5-2s1.5,0.9,1.5,2c0,1.1-0.7,2-1.5,2S130,234.1,130,233z"/>
							<line class="st23" x1="131.5" y1="231.8" x2="131.5" y2="227.5"/>
						</g>
						<g>
							<path class="st22" d="M130,226.1c0-1.1,0.7-2,1.5-2s1.5,0.9,1.5,2c0,1.1-0.7,2-1.5,2S130,227.2,130,226.1z"/>
							<line class="st23" x1="131.5" y1="224.8" x2="131.5" y2="220.6"/>
							<path class="st22" d="M130,219.7c0-1.1,0.7-2,1.5-2s1.5,0.9,1.5,2c0,1.1-0.7,2-1.5,2S130,220.8,130,219.7z"/>
							<line class="st23" x1="131.5" y1="218.4" x2="131.5" y2="214.2"/>
							<path class="st22" d="M130,213.3c0-1.1,0.7-2,1.5-2s1.5,0.9,1.5,2c0,1.1-0.7,2-1.5,2S130,214.4,130,213.3z"/>
							<line class="st23" x1="131.5" y1="212" x2="131.5" y2="207.8"/>
							<path class="st22" d="M130,206.9c0-1.1,0.7-2,1.5-2s1.5,0.9,1.5,2c0,1.1-0.7,2-1.5,2S130,208,130,206.9z"/>
							<line class="st23" x1="131.5" y1="205.6" x2="131.5" y2="201.4"/>
							<path class="st22" d="M130,200.5c0-1.1,0.7-2,1.5-2s1.5,0.9,1.5,2c0,1.1-0.7,2-1.5,2S130,201.6,130,200.5z"/>
							<line class="st23" x1="131.5" y1="199.2" x2="131.5" y2="195"/>
							<path class="st22" d="M130,194.1c0-1.1,0.7-2,1.5-2s1.5,0.9,1.5,2c0,1.1-0.7,2-1.5,2S130,195.2,130,194.1z"/>
							<line class="st23" x1="131.5" y1="192.8" x2="131.5" y2="188.6"/>
							<path class="st22" d="M130,187.7c0-1.1,0.7-2,1.5-2s1.5,0.9,1.5,2c0,1.1-0.7,2-1.5,2S130,188.8,130,187.7z"/>
							<line class="st23" x1="131.5" y1="186.4" x2="131.5" y2="182.2"/>
							<path class="st22" d="M130,181.3c0-1.1,0.7-2,1.5-2s1.5,0.9,1.5,2c0,1.1-0.7,2-1.5,2S130,182.4,130,181.3z"/>
							<line class="st23" x1="131.5" y1="180" x2="131.5" y2="175.8"/>
							<path class="st22" d="M130,174.9c0-1.1,0.7-2,1.5-2s1.5,0.9,1.5,2c0,1.1-0.7,2-1.5,2S130,176,130,174.9z"/>
							<line class="st23" x1="131.5" y1="173.6" x2="131.5" y2="169.4"/>
							<path class="st22" d="M130,168.5c0-1.1,0.7-2,1.5-2s1.5,0.9,1.5,2c0,1.1-0.7,2-1.5,2S130,169.6,130,168.5z"/>
							<line class="st23" x1="131.5" y1="167.2" x2="131.5" y2="163"/>
							<path class="st22" d="M130,162.1c0-1.1,0.7-2,1.5-2s1.5,0.9,1.5,2c0,1.1-0.7,2-1.5,2S130,163.2,130,162.1z"/>
							<line class="st23" x1="131.5" y1="160.8" x2="131.5" y2="156.6"/>
							<path class="st22" d="M130,155.7c0-1.1,0.7-2,1.5-2s1.5,0.9,1.5,2c0,1.1-0.7,2-1.5,2S130,156.8,130,155.7z"/>
							<line class="st23" x1="131.5" y1="154.4" x2="131.5" y2="150.2"/>
							<path class="st22" d="M130,149.3c0-1.1,0.7-2,1.5-2s1.5,0.9,1.5,2c0,1.1-0.7,2-1.5,2S130,150.4,130,149.3z"/>
							<line class="st23" x1="131.5" y1="148" x2="131.5" y2="143.8"/>
							<path class="st22" d="M130,142.9c0-1.1,0.7-2,1.5-2s1.5,0.9,1.5,2c0,1.1-0.7,2-1.5,2S130,144,130,142.9z"/>
							<line class="st23" x1="131.5" y1="141.6" x2="131.5" y2="137.4"/>
							<path class="st22" d="M130,136.5c0-1.1,0.7-2,1.5-2s1.5,0.9,1.5,2c0,1.1-0.7,2-1.5,2S130,137.6,130,136.5z"/>
							<line class="st23" x1="131.5" y1="135.2" x2="131.5" y2="131"/>
							<path class="st22" d="M130,130.1c0-1.1,0.7-2,1.5-2s1.5,0.9,1.5,2c0,1.1-0.7,2-1.5,2S130,131.2,130,130.1z"/>
							<line class="st23" x1="131.5" y1="128.8" x2="131.5" y2="124.6"/>
							<path class="st22" d="M130,123.7c0-1.1,0.7-2,1.5-2s1.5,0.9,1.5,2c0,1.1-0.7,2-1.5,2S130,124.8,130,123.7z"/>
							<line class="st23" x1="131.5" y1="122.4" x2="131.5" y2="118.2"/>
							<path class="st22" d="M130,117.3c0-1.1,0.7-2,1.5-2s1.5,0.9,1.5,2c0,1.1-0.7,2-1.5,2S130,118.4,130,117.3z"/>
							<line class="st23" x1="131.5" y1="116" x2="131.5" y2="111.8"/>
							<path class="st22" d="M130,110.9c0-1.1,0.7-2,1.5-2s1.5,0.9,1.5,2c0,1.1-0.7,2-1.5,2S130,112,130,110.9z"/>
							<line class="st23" x1="131.5" y1="109.6" x2="131.5" y2="105.4"/>
						</g>
					</g>
				</g>
				<path class="st13" d="M237.7,358.7H114.5c-2.8,0-5-2.2-5-5v-6.8c0-2.8,2.2-5,5-5h123.2c2.8,0,5,2.2,5,5v6.8
					C242.7,356.5,240.5,358.7,237.7,358.7z"/>
				<path class="st17" d="M237.7,358.7H114.5c-2.8,0-5-2.2-5-5v-6.8c0-2.8,2.2-5,5-5h123.2c2.8,0,5,2.2,5,5v6.8
					C242.7,356.5,240.5,358.7,237.7,358.7z"/>
				<path class="st13" d="M237.7,358.7h-30.9c-2.8,0-5-2.2-5-5v-6.8c0-2.8,2.2-5,5-5h30.9c2.8,0,5,2.2,5,5v6.8
					C242.7,356.5,240.5,358.7,237.7,358.7z"/>
				<path class="st10" d="M226.6,350.3c0,2.4-1.9,4.3-4.3,4.3s-4.3-1.9-4.3-4.3s1.9-4.3,4.3-4.3S226.6,347.9,226.6,350.3z"/>
				<g>
					<g>
						<g>
							<path class="st19" d="M221.3,348.2c0-1.1,0.7-2,1.5-2s1.5,0.9,1.5,2c0,1.1-0.7,2-1.5,2S221.3,349.3,221.3,348.2z"/>
							<line class="st20" x1="222.8" y1="347" x2="222.8" y2="342.7"/>
							<path class="st19" d="M221.3,341.8c0-1.1,0.7-2,1.5-2s1.5,0.9,1.5,2c0,1.1-0.7,2-1.5,2S221.3,342.9,221.3,341.8z"/>
							<line class="st20" x1="222.8" y1="340.6" x2="222.8" y2="336.3"/>
							<path class="st19" d="M221.3,335.4c0-1.1,0.7-2,1.5-2s1.5,0.9,1.5,2c0,1.1-0.7,2-1.5,2S221.3,336.5,221.3,335.4z"/>
							<line class="st20" x1="222.8" y1="334.2" x2="222.8" y2="329.9"/>
							<path class="st19" d="M221.3,329c0-1.1,0.7-2,1.5-2s1.5,0.9,1.5,2s-0.7,2-1.5,2S221.3,330.1,221.3,329z"/>
							<line class="st20" x1="222.8" y1="327.8" x2="222.8" y2="323.5"/>
							<path class="st19" d="M221.3,322.6c0-1.1,0.7-2,1.5-2s1.5,0.9,1.5,2s-0.7,2-1.5,2S221.3,323.7,221.3,322.6z"/>
							<line class="st20" x1="222.8" y1="321.4" x2="222.8" y2="317.1"/>
							<path class="st19" d="M221.3,316.2c0-1.1,0.7-2,1.5-2s1.5,0.9,1.5,2s-0.7,2-1.5,2S221.3,317.3,221.3,316.2z"/>
							<line class="st20" x1="222.8" y1="315" x2="222.8" y2="310.7"/>
							<ellipse class="st19" cx="222.8" cy="309.8" rx="1.5" ry="2"/>
							<line class="st20" x1="222.8" y1="308.6" x2="222.8" y2="304.3"/>
							<ellipse class="st19" cx="222.8" cy="303.4" rx="1.5" ry="2"/>
							<line class="st20" x1="222.8" y1="302.2" x2="222.8" y2="297.9"/>
							<ellipse class="st19" cx="222.8" cy="297" rx="1.5" ry="2"/>
							<line class="st20" x1="222.8" y1="295.8" x2="222.8" y2="291.5"/>
							<ellipse class="st19" cx="222.8" cy="290.6" rx="1.5" ry="2"/>
							<line class="st20" x1="222.8" y1="289.4" x2="222.8" y2="285.1"/>
							<ellipse class="st19" cx="222.8" cy="284.2" rx="1.5" ry="2"/>
							<line class="st20" x1="222.8" y1="283" x2="222.8" y2="278.7"/>
							<ellipse class="st19" cx="222.8" cy="277.8" rx="1.5" ry="2"/>
							<line class="st20" x1="222.8" y1="276.6" x2="222.8" y2="272.3"/>
							<ellipse class="st19" cx="222.8" cy="271.4" rx="1.5" ry="2"/>
							<line class="st20" x1="222.8" y1="270.2" x2="222.8" y2="265.9"/>
							<path class="st19" d="M221.3,265c0-1.1,0.7-2,1.5-2s1.5,0.9,1.5,2c0,1.1-0.7,2-1.5,2S221.3,266.1,221.3,265z"/>
							<line class="st20" x1="222.8" y1="263.8" x2="222.8" y2="259.5"/>
							<path class="st19" d="M221.3,258.6c0-1.1,0.7-2,1.5-2s1.5,0.9,1.5,2c0,1.1-0.7,2-1.5,2S221.3,259.7,221.3,258.6z"/>
							<line class="st20" x1="222.8" y1="257.4" x2="222.8" y2="253.1"/>
							<path class="st19" d="M221.3,252.2c0-1.1,0.7-2,1.5-2s1.5,0.9,1.5,2c0,1.1-0.7,2-1.5,2S221.3,253.3,221.3,252.2z"/>
							<line class="st20" x1="222.8" y1="251" x2="222.8" y2="246.7"/>
							<path class="st19" d="M221.3,245.8c0-1.1,0.7-2,1.5-2s1.5,0.9,1.5,2c0,1.1-0.7,2-1.5,2S221.3,246.9,221.3,245.8z"/>
							<line class="st20" x1="222.8" y1="244.6" x2="222.8" y2="240.3"/>
							<path class="st19" d="M221.3,239.4c0-1.1,0.7-2,1.5-2s1.5,0.9,1.5,2c0,1.1-0.7,2-1.5,2S221.3,240.5,221.3,239.4z"/>
							<line class="st20" x1="222.8" y1="238.2" x2="222.8" y2="233.9"/>
							<path class="st19" d="M221.3,233c0-1.1,0.7-2,1.5-2s1.5,0.9,1.5,2c0,1.1-0.7,2-1.5,2S221.3,234.1,221.3,233z"/>
							<line class="st20" x1="222.8" y1="231.8" x2="222.8" y2="227.5"/>
						</g>
						<g>
							<path class="st19" d="M221.3,226.1c0-1.1,0.7-2,1.5-2s1.5,0.9,1.5,2c0,1.1-0.7,2-1.5,2S221.3,227.2,221.3,226.1z"/>
							<line class="st20" x1="222.8" y1="224.8" x2="222.8" y2="220.6"/>
							<path class="st19" d="M221.3,219.7c0-1.1,0.7-2,1.5-2s1.5,0.9,1.5,2c0,1.1-0.7,2-1.5,2S221.3,220.8,221.3,219.7z"/>
							<line class="st20" x1="222.8" y1="218.4" x2="222.8" y2="214.2"/>
							<path class="st19" d="M221.3,213.3c0-1.1,0.7-2,1.5-2s1.5,0.9,1.5,2c0,1.1-0.7,2-1.5,2S221.3,214.4,221.3,213.3z"/>
							<line class="st20" x1="222.8" y1="212" x2="222.8" y2="207.8"/>
							<path class="st19" d="M221.3,206.9c0-1.1,0.7-2,1.5-2s1.5,0.9,1.5,2c0,1.1-0.7,2-1.5,2S221.3,208,221.3,206.9z"/>
							<line class="st20" x1="222.8" y1="205.6" x2="222.8" y2="201.4"/>
							<path class="st19" d="M221.3,200.5c0-1.1,0.7-2,1.5-2s1.5,0.9,1.5,2c0,1.1-0.7,2-1.5,2S221.3,201.6,221.3,200.5z"/>
							<line class="st20" x1="222.8" y1="199.2" x2="222.8" y2="195"/>
							<path class="st19" d="M221.3,194.1c0-1.1,0.7-2,1.5-2s1.5,0.9,1.5,2c0,1.1-0.7,2-1.5,2S221.3,195.2,221.3,194.1z"/>
							<line class="st20" x1="222.8" y1="192.8" x2="222.8" y2="188.6"/>
							<path class="st19" d="M221.3,187.7c0-1.1,0.7-2,1.5-2s1.5,0.9,1.5,2c0,1.1-0.7,2-1.5,2S221.3,188.8,221.3,187.7z"/>
							<line class="st20" x1="222.8" y1="186.4" x2="222.8" y2="182.2"/>
							<path class="st19" d="M221.3,181.3c0-1.1,0.7-2,1.5-2s1.5,0.9,1.5,2c0,1.1-0.7,2-1.5,2S221.3,182.4,221.3,181.3z"/>
							<line class="st20" x1="222.8" y1="180" x2="222.8" y2="175.8"/>
							<path class="st19" d="M221.3,174.9c0-1.1,0.7-2,1.5-2s1.5,0.9,1.5,2c0,1.1-0.7,2-1.5,2S221.3,176,221.3,174.9z"/>
							<line class="st20" x1="222.8" y1="173.6" x2="222.8" y2="169.4"/>
							<path class="st19" d="M221.3,168.5c0-1.1,0.7-2,1.5-2s1.5,0.9,1.5,2c0,1.1-0.7,2-1.5,2S221.3,169.6,221.3,168.5z"/>
							<line class="st20" x1="222.8" y1="167.2" x2="222.8" y2="163"/>
							<path class="st19" d="M221.3,162.1c0-1.1,0.7-2,1.5-2s1.5,0.9,1.5,2c0,1.1-0.7,2-1.5,2S221.3,163.2,221.3,162.1z"/>
							<line class="st20" x1="222.8" y1="160.8" x2="222.8" y2="156.6"/>
							<path class="st19" d="M221.3,155.7c0-1.1,0.7-2,1.5-2s1.5,0.9,1.5,2c0,1.1-0.7,2-1.5,2S221.3,156.8,221.3,155.7z"/>
							<line class="st20" x1="222.8" y1="154.4" x2="222.8" y2="150.2"/>
							<path class="st19" d="M221.3,149.3c0-1.1,0.7-2,1.5-2s1.5,0.9,1.5,2c0,1.1-0.7,2-1.5,2S221.3,150.4,221.3,149.3z"/>
							<line class="st20" x1="222.8" y1="148" x2="222.8" y2="143.8"/>
							<path class="st19" d="M221.3,142.9c0-1.1,0.7-2,1.5-2s1.5,0.9,1.5,2c0,1.1-0.7,2-1.5,2S221.3,144,221.3,142.9z"/>
							<line class="st20" x1="222.8" y1="141.6" x2="222.8" y2="137.4"/>
							<path class="st19" d="M221.3,136.5c0-1.1,0.7-2,1.5-2s1.5,0.9,1.5,2c0,1.1-0.7,2-1.5,2S221.3,137.6,221.3,136.5z"/>
							<line class="st20" x1="222.8" y1="135.2" x2="222.8" y2="131"/>
							<path class="st19" d="M221.3,130.1c0-1.1,0.7-2,1.5-2s1.5,0.9,1.5,2c0,1.1-0.7,2-1.5,2S221.3,131.2,221.3,130.1z"/>
							<line class="st20" x1="222.8" y1="128.8" x2="222.8" y2="124.6"/>
							<path class="st19" d="M221.3,123.7c0-1.1,0.7-2,1.5-2s1.5,0.9,1.5,2c0,1.1-0.7,2-1.5,2S221.3,124.8,221.3,123.7z"/>
							<line class="st20" x1="222.8" y1="122.4" x2="222.8" y2="118.2"/>
							<path class="st19" d="M221.3,117.3c0-1.1,0.7-2,1.5-2s1.5,0.9,1.5,2c0,1.1-0.7,2-1.5,2S221.3,118.4,221.3,117.3z"/>
							<line class="st20" x1="222.8" y1="116" x2="222.8" y2="111.8"/>
							<path class="st19" d="M221.3,110.9c0-1.1,0.7-2,1.5-2s1.5,0.9,1.5,2c0,1.1-0.7,2-1.5,2S221.3,112,221.3,110.9z"/>
							<line class="st20" x1="222.8" y1="109.6" x2="222.8" y2="105.4"/>
						</g>
					</g>
					<g class="st21">
						<g>
							<path class="st22" d="M221.3,348.2c0-1.1,0.7-2,1.5-2s1.5,0.9,1.5,2c0,1.1-0.7,2-1.5,2S221.3,349.3,221.3,348.2z"/>
							<line class="st23" x1="222.8" y1="347" x2="222.8" y2="342.7"/>
							<path class="st22" d="M221.3,341.8c0-1.1,0.7-2,1.5-2s1.5,0.9,1.5,2c0,1.1-0.7,2-1.5,2S221.3,342.9,221.3,341.8z"/>
							<line class="st23" x1="222.8" y1="340.6" x2="222.8" y2="336.3"/>
							<path class="st22" d="M221.3,335.4c0-1.1,0.7-2,1.5-2s1.5,0.9,1.5,2c0,1.1-0.7,2-1.5,2S221.3,336.5,221.3,335.4z"/>
							<line class="st23" x1="222.8" y1="334.2" x2="222.8" y2="329.9"/>
							<path class="st22" d="M221.3,329c0-1.1,0.7-2,1.5-2s1.5,0.9,1.5,2s-0.7,2-1.5,2S221.3,330.1,221.3,329z"/>
							<line class="st23" x1="222.8" y1="327.8" x2="222.8" y2="323.5"/>
							<path class="st22" d="M221.3,322.6c0-1.1,0.7-2,1.5-2s1.5,0.9,1.5,2s-0.7,2-1.5,2S221.3,323.7,221.3,322.6z"/>
							<line class="st23" x1="222.8" y1="321.4" x2="222.8" y2="317.1"/>
							<path class="st22" d="M221.3,316.2c0-1.1,0.7-2,1.5-2s1.5,0.9,1.5,2s-0.7,2-1.5,2S221.3,317.3,221.3,316.2z"/>
							<line class="st23" x1="222.8" y1="315" x2="222.8" y2="310.7"/>
							<ellipse class="st22" cx="222.8" cy="309.8" rx="1.5" ry="2"/>
							<line class="st23" x1="222.8" y1="308.6" x2="222.8" y2="304.3"/>
							<ellipse class="st22" cx="222.8" cy="303.4" rx="1.5" ry="2"/>
							<line class="st23" x1="222.8" y1="302.2" x2="222.8" y2="297.9"/>
							<ellipse class="st22" cx="222.8" cy="297" rx="1.5" ry="2"/>
							<line class="st23" x1="222.8" y1="295.8" x2="222.8" y2="291.5"/>
							<ellipse class="st22" cx="222.8" cy="290.6" rx="1.5" ry="2"/>
							<line class="st23" x1="222.8" y1="289.4" x2="222.8" y2="285.1"/>
							<ellipse class="st22" cx="222.8" cy="284.2" rx="1.5" ry="2"/>
							<line class="st23" x1="222.8" y1="283" x2="222.8" y2="278.7"/>
							<ellipse class="st22" cx="222.8" cy="277.8" rx="1.5" ry="2"/>
							<line class="st23" x1="222.8" y1="276.6" x2="222.8" y2="272.3"/>
							<ellipse class="st22" cx="222.8" cy="271.4" rx="1.5" ry="2"/>
							<line class="st23" x1="222.8" y1="270.2" x2="222.8" y2="265.9"/>
							<path class="st22" d="M221.3,265c0-1.1,0.7-2,1.5-2s1.5,0.9,1.5,2c0,1.1-0.7,2-1.5,2S221.3,266.1,221.3,265z"/>
							<line class="st23" x1="222.8" y1="263.8" x2="222.8" y2="259.5"/>
							<path class="st22" d="M221.3,258.6c0-1.1,0.7-2,1.5-2s1.5,0.9,1.5,2c0,1.1-0.7,2-1.5,2S221.3,259.7,221.3,258.6z"/>
							<line class="st23" x1="222.8" y1="257.4" x2="222.8" y2="253.1"/>
							<path class="st22" d="M221.3,252.2c0-1.1,0.7-2,1.5-2s1.5,0.9,1.5,2c0,1.1-0.7,2-1.5,2S221.3,253.3,221.3,252.2z"/>
							<line class="st23" x1="222.8" y1="251" x2="222.8" y2="246.7"/>
							<path class="st22" d="M221.3,245.8c0-1.1,0.7-2,1.5-2s1.5,0.9,1.5,2c0,1.1-0.7,2-1.5,2S221.3,246.9,221.3,245.8z"/>
							<line class="st23" x1="222.8" y1="244.6" x2="222.8" y2="240.3"/>
							<path class="st22" d="M221.3,239.4c0-1.1,0.7-2,1.5-2s1.5,0.9,1.5,2c0,1.1-0.7,2-1.5,2S221.3,240.5,221.3,239.4z"/>
							<line class="st23" x1="222.8" y1="238.2" x2="222.8" y2="233.9"/>
							<path class="st22" d="M221.3,233c0-1.1,0.7-2,1.5-2s1.5,0.9,1.5,2c0,1.1-0.7,2-1.5,2S221.3,234.1,221.3,233z"/>
							<line class="st23" x1="222.8" y1="231.8" x2="222.8" y2="227.5"/>
						</g>
						<g>
							<path class="st22" d="M221.3,226.1c0-1.1,0.7-2,1.5-2s1.5,0.9,1.5,2c0,1.1-0.7,2-1.5,2S221.3,227.2,221.3,226.1z"/>
							<line class="st23" x1="222.8" y1="224.8" x2="222.8" y2="220.6"/>
							<path class="st22" d="M221.3,219.7c0-1.1,0.7-2,1.5-2s1.5,0.9,1.5,2c0,1.1-0.7,2-1.5,2S221.3,220.8,221.3,219.7z"/>
							<line class="st23" x1="222.8" y1="218.4" x2="222.8" y2="214.2"/>
							<path class="st22" d="M221.3,213.3c0-1.1,0.7-2,1.5-2s1.5,0.9,1.5,2c0,1.1-0.7,2-1.5,2S221.3,214.4,221.3,213.3z"/>
							<line class="st23" x1="222.8" y1="212" x2="222.8" y2="207.8"/>
							<path class="st22" d="M221.3,206.9c0-1.1,0.7-2,1.5-2s1.5,0.9,1.5,2c0,1.1-0.7,2-1.5,2S221.3,208,221.3,206.9z"/>
							<line class="st23" x1="222.8" y1="205.6" x2="222.8" y2="201.4"/>
							<path class="st22" d="M221.3,200.5c0-1.1,0.7-2,1.5-2s1.5,0.9,1.5,2c0,1.1-0.7,2-1.5,2S221.3,201.6,221.3,200.5z"/>
							<line class="st23" x1="222.8" y1="199.2" x2="222.8" y2="195"/>
							<path class="st22" d="M221.3,194.1c0-1.1,0.7-2,1.5-2s1.5,0.9,1.5,2c0,1.1-0.7,2-1.5,2S221.3,195.2,221.3,194.1z"/>
							<line class="st23" x1="222.8" y1="192.8" x2="222.8" y2="188.6"/>
							<path class="st22" d="M221.3,187.7c0-1.1,0.7-2,1.5-2s1.5,0.9,1.5,2c0,1.1-0.7,2-1.5,2S221.3,188.8,221.3,187.7z"/>
							<line class="st23" x1="222.8" y1="186.4" x2="222.8" y2="182.2"/>
							<path class="st22" d="M221.3,181.3c0-1.1,0.7-2,1.5-2s1.5,0.9,1.5,2c0,1.1-0.7,2-1.5,2S221.3,182.4,221.3,181.3z"/>
							<line class="st23" x1="222.8" y1="180" x2="222.8" y2="175.8"/>
							<path class="st22" d="M221.3,174.9c0-1.1,0.7-2,1.5-2s1.5,0.9,1.5,2c0,1.1-0.7,2-1.5,2S221.3,176,221.3,174.9z"/>
							<line class="st23" x1="222.8" y1="173.6" x2="222.8" y2="169.4"/>
							<path class="st22" d="M221.3,168.5c0-1.1,0.7-2,1.5-2s1.5,0.9,1.5,2c0,1.1-0.7,2-1.5,2S221.3,169.6,221.3,168.5z"/>
							<line class="st23" x1="222.8" y1="167.2" x2="222.8" y2="163"/>
							<path class="st22" d="M221.3,162.1c0-1.1,0.7-2,1.5-2s1.5,0.9,1.5,2c0,1.1-0.7,2-1.5,2S221.3,163.2,221.3,162.1z"/>
							<line class="st23" x1="222.8" y1="160.8" x2="222.8" y2="156.6"/>
							<path class="st22" d="M221.3,155.7c0-1.1,0.7-2,1.5-2s1.5,0.9,1.5,2c0,1.1-0.7,2-1.5,2S221.3,156.8,221.3,155.7z"/>
							<line class="st23" x1="222.8" y1="154.4" x2="222.8" y2="150.2"/>
							<path class="st22" d="M221.3,149.3c0-1.1,0.7-2,1.5-2s1.5,0.9,1.5,2c0,1.1-0.7,2-1.5,2S221.3,150.4,221.3,149.3z"/>
							<line class="st23" x1="222.8" y1="148" x2="222.8" y2="143.8"/>
							<path class="st22" d="M221.3,142.9c0-1.1,0.7-2,1.5-2s1.5,0.9,1.5,2c0,1.1-0.7,2-1.5,2S221.3,144,221.3,142.9z"/>
							<line class="st23" x1="222.8" y1="141.6" x2="222.8" y2="137.4"/>
							<path class="st22" d="M221.3,136.5c0-1.1,0.7-2,1.5-2s1.5,0.9,1.5,2c0,1.1-0.7,2-1.5,2S221.3,137.6,221.3,136.5z"/>
							<line class="st23" x1="222.8" y1="135.2" x2="222.8" y2="131"/>
							<path class="st22" d="M221.3,130.1c0-1.1,0.7-2,1.5-2s1.5,0.9,1.5,2c0,1.1-0.7,2-1.5,2S221.3,131.2,221.3,130.1z"/>
							<line class="st23" x1="222.8" y1="128.8" x2="222.8" y2="124.6"/>
							<path class="st22" d="M221.3,123.7c0-1.1,0.7-2,1.5-2s1.5,0.9,1.5,2c0,1.1-0.7,2-1.5,2S221.3,124.8,221.3,123.7z"/>
							<line class="st23" x1="222.8" y1="122.4" x2="222.8" y2="118.2"/>
							<path class="st22" d="M221.3,117.3c0-1.1,0.7-2,1.5-2s1.5,0.9,1.5,2c0,1.1-0.7,2-1.5,2S221.3,118.4,221.3,117.3z"/>
							<line class="st23" x1="222.8" y1="116" x2="222.8" y2="111.8"/>
							<path class="st22" d="M221.3,110.9c0-1.1,0.7-2,1.5-2s1.5,0.9,1.5,2c0,1.1-0.7,2-1.5,2S221.3,112,221.3,110.9z"/>
							<line class="st23" x1="222.8" y1="109.6" x2="222.8" y2="105.4"/>
						</g>
					</g>
				</g>
			</g>
			<path class="st13" d="M415.1,101.3H84.9c-1.5,0-2.8,1.2-2.8,2.8l0,0c0,1.5,1.2,2.8,2.8,2.8h330.3c1.5,0,2.8-1.2,2.8-2.8l0,0
				C417.9,102.6,416.7,101.3,415.1,101.3z"/>
			<path class="st15" d="M415.1,101.3H84.9c-1.5,0-2.8,1.2-2.8,2.8l0,0c0,1.5,1.2,2.8,2.8,2.8h330.3c1.5,0,2.8-1.2,2.8-2.8l0,0
				C417.9,102.6,416.7,101.3,415.1,101.3z"/>
			<g>
				<path class="st13" d="M228.8,99.7h-12c-1.7,0-3,1.3-3,3v2.9c0,1.7,1.3,3,3,3h12c1.7,0,3-1.3,3-3v-2.9
					C231.8,101,230.5,99.7,228.8,99.7z"/>
				<path class="st17" d="M228.8,99.7h-12c-1.7,0-3,1.3-3,3v2.9c0,1.7,1.3,3,3,3h12c1.7,0,3-1.3,3-3v-2.9
					C231.8,101,230.5,99.7,228.8,99.7z"/>
				<path class="st18" d="M228.8,99.7h-1.2c-1.7,0-3,1.3-3,3v2.9c0,1.7,1.3,3,3,3h1.2c1.7,0,3-1.3,3-3v-2.9
					C231.8,101,230.5,99.7,228.8,99.7z"/>
				<path class="st13" d="M232.8,101.3h-3.4c-1.5,0-2.8,1.2-2.8,2.8l0,0c0,1.5,1.2,2.8,2.8,2.8h3.4V101.3z"/>
				<path class="st15" d="M232.8,101.3h-3.4c-1.5,0-2.8,1.2-2.8,2.8l0,0c0,1.5,1.2,2.8,2.8,2.8h3.4V101.3z"/>
			</g>
			<g>
				<path class="st13" d="M137,99.7h-12c-1.7,0-3,1.3-3,3v2.9c0,1.7,1.3,3,3,3h12c1.7,0,3-1.3,3-3v-2.9C140,101,138.6,99.7,137,99.7
					z"/>
				<path class="st17" d="M137,99.7h-12c-1.7,0-3,1.3-3,3v2.9c0,1.7,1.3,3,3,3h12c1.7,0,3-1.3,3-3v-2.9C140,101,138.6,99.7,137,99.7
					z"/>
				<path class="st18" d="M137,99.7h-1.2c-1.7,0-3,1.3-3,3v2.9c0,1.7,1.3,3,3,3h1.2c1.7,0,3-1.3,3-3v-2.9
					C140,101,138.6,99.7,137,99.7z"/>
				<path class="st13" d="M141,101.3h-3.4c-1.5,0-2.8,1.2-2.8,2.8l0,0c0,1.5,1.2,2.8,2.8,2.8h3.4V101.3z"/>
				<path class="st15" d="M141,101.3h-3.4c-1.5,0-2.8,1.2-2.8,2.8l0,0c0,1.5,1.2,2.8,2.8,2.8h3.4V101.3z"/>
			</g>
			<g>
				<path class="st13" d="M373.8,99.7h-12c-1.7,0-3,1.3-3,3v2.9c0,1.7,1.3,3,3,3h12c1.7,0,3-1.3,3-3v-2.9
					C376.8,101,375.4,99.7,373.8,99.7z"/>
				<path class="st17" d="M373.8,99.7h-12c-1.7,0-3,1.3-3,3v2.9c0,1.7,1.3,3,3,3h12c1.7,0,3-1.3,3-3v-2.9
					C376.8,101,375.4,99.7,373.8,99.7z"/>
				<path class="st18" d="M373.8,99.7h-1.2c-1.7,0-3,1.3-3,3v2.9c0,1.7,1.3,3,3,3h1.2c1.7,0,3-1.3,3-3v-2.9
					C376.8,101,375.4,99.7,373.8,99.7z"/>
				<path class="st13" d="M377.8,101.3h-3.4c-1.5,0-2.8,1.2-2.8,2.8l0,0c0,1.5,1.2,2.8,2.8,2.8h3.4V101.3z"/>
				<path class="st15" d="M377.8,101.3h-3.4c-1.5,0-2.8,1.2-2.8,2.8l0,0c0,1.5,1.2,2.8,2.8,2.8h3.4V101.3z"/>
			</g>
			<g>
				<path class="st13" d="M282,99.7h-12c-1.7,0-3,1.3-3,3v2.9c0,1.7,1.3,3,3,3h12c1.7,0,3-1.3,3-3v-2.9C285,101,283.6,99.7,282,99.7
					z"/>
				<path class="st17" d="M282,99.7h-12c-1.7,0-3,1.3-3,3v2.9c0,1.7,1.3,3,3,3h12c1.7,0,3-1.3,3-3v-2.9C285,101,283.6,99.7,282,99.7
					z"/>
				<path class="st18" d="M282,99.7h-1.2c-1.7,0-3,1.3-3,3v2.9c0,1.7,1.3,3,3,3h1.2c1.7,0,3-1.3,3-3v-2.9
					C285,101,283.6,99.7,282,99.7z"/>
				<path class="st13" d="M286,101.3h-3.4c-1.5,0-2.8,1.2-2.8,2.8l0,0c0,1.5,1.2,2.8,2.8,2.8h3.4V101.3z"/>
				<path class="st15" d="M286,101.3h-3.4c-1.5,0-2.8,1.2-2.8,2.8l0,0c0,1.5,1.2,2.8,2.8,2.8h3.4V101.3z"/>
			</g>
			<path class="st13" d="M417.9,88.9L417.9,88.9c-6.6,0-11.9,5.3-11.9,11.9v315.5h23.8V100.8C429.8,94.2,424.5,88.9,417.9,88.9z"/>
			<path class="st17" d="M417.9,88.9L417.9,88.9c-6.6,0-11.9,5.3-11.9,11.9v315.5h23.8V100.8C429.8,94.2,424.5,88.9,417.9,88.9z"/>
			<g class="st10">
				<path class="st24" d="M70.2,100.8v315.5h5.8V100.8c0-5.6,3.8-10.2,9-11.5c-0.9-0.2-1.9-0.4-2.9-0.4
					C75.5,88.9,70.2,94.2,70.2,100.8z"/>
			</g>
			<g class="st10">
				<path class="st24" d="M417.9,88.9c-6.6,0-11.9,5.3-11.9,11.9v315.5h5.8V100.8c0-5.6,3.8-10.2,9-11.5
					C419.9,89,418.9,88.9,417.9,88.9L417.9,88.9z"/>
			</g>
		</g>
	</g>
</g>
</svg>
